<?xml version="1.0" encoding="utf-8"?>
<svg id="master-artboard" viewBox="0 0 1400 980" version="1.1" xmlns="http://www.w3.org/2000/svg" x="0px" y="0px" style="enable-background:new 0 0 1400 980;" width="1400px" height="980px"><g transform="matrix(5.238608429262021, 0, 0, 5.238608429262021, -0.7422330033164175, -17.368243520367283)"><g transform="matrix(0.18060434204538725, 0, 0, 0.18060434204538725, 0.11458058362393331, 4.097629470120708)"><g transform="translate(0.000000,300.000000) scale(0.100000,-0.100000)" fill="#282625" stroke="none">
<path d="M1475 2950 c-33 -28 -82 -63 -108 -79 -45 -27 -109 -96 -204 -221&#10;-113 -149 -221 -254 -319 -311 -48 -27 -52 -33 -68 -91 -23 -84 -50 -161 -102&#10;-295 -48 -121 -111 -261 -239 -528 -245 -511 -279 -586 -362 -790 -25 -60 -52&#10;-127 -60 -147 -15 -35 -15 -38 18 -95 57 -100 124 -194 208 -295 l81 -98 88 0&#10;c48 1 114 7 147 14 33 8 94 21 135 30 97 22 177 59 212 99 15 18 69 106 120&#10;197 51 91 108 182 127 203 47 53 109 81 221 102 152 29 181 47 333 208 129&#10;137 202 197 240 197 10 0 39 8 65 19 26 10 85 33 132 51 200 75 295 145 355&#10;260 13 25 40 56 62 70 159 104 203 151 203 220 0 58 -12 75 -90 126 -54 35&#10;-81 45 -128 50 -102 11 -160 -14 -343 -147 -35 -26 -79 -50 -97 -54 -18 -4&#10;-63 -27 -100 -52 -179 -120 -217 -116 -316 36 -94 145 -102 160 -126 239 -20&#10;65 -21 75 -7 90 8 9 26 44 40 77 14 33 49 113 76 177 28 65 62 136 76 158 l25&#10;40 83 0 c66 0 87 4 107 20 14 11 33 20 42 20 9 0 58 -20 109 -45 71 -35 104&#10;-45 141 -45 57 0 73 8 196 89 97 66 107 82 90 149 -8 29 -26 50 -86 98 -166&#10;132 -340 224 -508 270 -82 22 -125 27 -254 30 l-155 4 -60 -50z m367 -14 c135&#10;-20 262 -61 283 -92 11 -16 25 -24 45 -24 36 0 129 -46 137 -68 4 -8 1 -23 -5&#10;-32 -6 -10 -8 -27 -5 -39 5 -20 4 -21 -33 -7 -36 13 -217 97 -325 151 -39 19&#10;-73 24 -235 34 -256 16 -249 14 -172 56 56 30 72 34 138 34 41 0 119 -6 172&#10;-13z m-237 -121 c110 -8 219 -18 242 -21 40 -6 41 -7 32 -31 -5 -14 -7 -28 -4&#10;-31 3 -3 29 3 59 13 l53 18 79 -43 c125 -69 150 -88 179 -141 29 -53 54 -69&#10;110 -69 61 0 57 -31 -9 -73 -60 -38 -125 -37 -211 3 l-65 30 0 55 c0 33 -9 76&#10;-22 109 -26 63 -9 58 -288 77 l-165 11 -170 -52 c-93 -28 -178 -54 -187 -58&#10;-9 -4 -81 -92 -159 -197 -130 -173 -263 -324 -276 -312 -11 12 45 98 106 162&#10;65 69 85 93 272 330 98 125 199 235 215 235 5 0 99 -7 209 -15z m795 -142 c42&#10;-27 80 -66 74 -75 -20 -32 -135 39 -121 75 8 21 16 21 47 0z m-549 -24 c46&#10;-18 107 -37 134 -44 40 -9 51 -16 53 -34 5 -30 -19 -64 -63 -91 -33 -20 -50&#10;-23 -168 -24 -108 -1 -138 2 -164 17 -43 23 -47 22 -61 -17 -9 -24 -29 -45&#10;-65 -68 -44 -28 -60 -33 -113 -33 -63 0 -66 -3 -36 -37 20 -24 11 -98 -18&#10;-138 -24 -34 -73 -60 -114 -60 -24 0 -44 -16 -33 -26 10 -10 88 -6 117 6 17 7&#10;33 11 35 8 2 -2 -16 -60 -40 -128 -82 -228 -70 -207 -128 -226 -29 -10 -97&#10;-20 -152 -23 l-100 -6 55 -24 c40 -17 72 -24 117 -23 l61 0 8 -76 c12 -135 -2&#10;-374 -31 -502 -39 -174 -94 -280 -203 -390 -87 -86 -87 -87 -158 -99 -79 -14&#10;-207 -3 -270 24 -49 20 -54 19 -54 -9 0 -25 30 -50 85 -74 30 -12 30 -12 -10&#10;-6 -21 3 -52 12 -67 20 -56 29 -66 5 -18 -41 22 -21 44 -30 91 -37 33 -4 65&#10;-10 69 -13 5 -3 -6 -38 -24 -78 -44 -95 -86 -219 -86 -251 0 -49 -17 -75 -56&#10;-82 -82 -15 -133 21 -257 181 -42 55 -91 117 -108 137 l-32 37 48 113 c36 87&#10;56 121 87 148 34 30 40 43 48 95 8 58 48 168 109 297 56 120 265 596 331 754&#10;40 96 50 110 162 230 136 148 267 306 310 377 22 34 35 46 46 42 10 -4 35 14&#10;73 53 31 33 70 63 86 67 65 16 246 42 264 38 11 -3 31 5 50 21 41 35 85 34&#10;190 -5z m494 -89 c-9 -15 -27 -11 -52 9 -37 31 -27 43 17 21 23 -12 38 -25 35&#10;-30z m128 -32 c-24 -24 -37 -21 -27 6 3 9 16 16 27 16 l21 0 -21 -22z m-763&#10;-123 c0 -3 -9 -24 -20 -45 -29 -56 -56 -72 -103 -59 -20 5 -37 14 -37 19 0 20&#10;102 90 131 90 16 0 29 -2 29 -5z m-139 -157 c26 -11 26 -11 13 -67 -15 -71&#10;-47 -161 -70 -198 -22 -35 -105 -123 -117 -123 -12 0 -1 42 24 97 22 48 23 57&#10;9 48 -6 -4 -26 -40 -46 -82 -20 -41 -37 -73 -39 -71 -7 7 65 192 105 273 24&#10;49 40 94 40 116 0 45 8 53 34 34 12 -9 33 -21 47 -27z m-60 -475 c5 -48 14&#10;-98 21 -111 6 -12 33 -36 60 -52 32 -20 50 -38 54 -57 4 -16 21 -44 40 -63 59&#10;-62 76 -119 115 -369 6 -45 6 -67 -1 -71 -6 -4 -68 -63 -138 -132 l-127 -126&#10;-90 -27 c-49 -15 -137 -42 -194 -61 -144 -47 -171 -51 -171 -28 0 11 10 35 22&#10;54 45 75 106 209 134 295 25 78 28 106 29 210 0 66 -6 165 -13 220 -7 55 -15&#10;129 -18 165 l-5 65 65 40 c37 22 96 63 134 91 37 28 69 50 71 48 2 -2 7 -43&#10;12 -91z m1124 4 c53 -29 76 -55 82 -92 5 -30 1 -41 -23 -66 -16 -17 -55 -46&#10;-87 -66 -37 -23 -77 -60 -114 -106 -80 -102 -121 -144 -157 -158 -17 -7 -110&#10;-50 -206 -97 -96 -46 -194 -93 -217 -103 l-41 -18 -10 27 c-6 15 -13 68 -17&#10;117 -3 50 -13 109 -21 133 -18 53 -19 122 -1 123 32 3 64 -4 79 -18 20 -18 38&#10;-10 38 17 0 10 12 27 28 38 51 35 144 83 154 80 5 -2 24 -46 41 -99 32 -95 60&#10;-149 76 -149 5 0 1 26 -9 58 -10 31 -23 99 -31 151 l-12 94 29 24 c47 39 160&#10;104 206 119 55 18 173 13 213 -9z m-1600 -1262 c-39 -57 -55 -72 -34 -32 25&#10;45 62 97 67 92 3 -3 -12 -30 -33 -60z m-127 -32 c-41 -90 -130 -254 -135 -249&#10;-14 13 61 171 115 244 30 39 36 41 20 5z m-109 -70 c-23 -49 -45 -96 -50 -106&#10;-13 -24 -47 -135 -51 -167 -2 -17 -14 -31 -38 -42 -41 -21 -120 -24 -120 -5 0&#10;27 59 216 83 267 14 30 44 74 66 98 37 40 43 42 95 42 l55 0 -40 -87z m142&#10;-46 c-10 -9 -11 -8 -5 6 3 10 9 15 12 12 3 -3 0 -11 -7 -18z m-40 -74 c-12&#10;-20 -14 -14 -5 12 4 9 9 14 11 11 3 -2 0 -13 -6 -23z" id="node1" class="node"/>
<path d="M1385 1470 l-30 -21 30 7 c41 9 75 22 75 29 0 13 -48 3 -75 -15z" id="node2" class="node"/>
</g><g transform="translate(0.000000,300.000000) scale(0.100000,-0.100000)" fill="#FFFFFF" stroke="none">


<path d="M1532 2915 c-77 -42 -84 -40 172 -56 162 -10 196 -15 235 -34 108&#10;-54 289 -138 325 -151 37 -14 38 -13 33 7 -3 12 -1 29 5 39 6 9 9 24 5 32 -8&#10;22 -101 68 -137 68 -20 0 -34 8 -45 24 -32 48 -282 106 -455 105 -66 0 -82 -4&#10;-138 -34z" id="node5" class="node"/>
<path d="M1331 2772 c-31 -32 -98 -111 -150 -177 -187 -237 -207 -261 -272&#10;-330 -61 -64 -117 -150 -106 -162 13 -12 146 139 276 312 78 105 150 193 159&#10;197 9 4 94 30 187 58 l170 52 165 -11 c279 -19 262 -14 288 -77 13 -33 22 -76&#10;22 -109 l0 -55 65 -30 c86 -40 151 -41 211 -3 66 42 70 73 9 73 -56 0 -81 16&#10;-110 69 -29 53 -54 72 -179 141 l-79 43 -53 -18 c-30 -10 -56 -16 -59 -13 -3&#10;3 -1 17 4 31 9 24 8 25 -32 31 -35 5 -420 36 -451 36 -5 0 -35 -26 -65 -58z" id="node6" class="node"/>
<path d="M2353 2673 c-14 -36 101 -107 121 -75 8 13 -83 92 -107 92 -4 0 -10&#10;-7 -14 -17z" id="node7" class="node"/>
<path d="M1661 2654 c-19 -16 -39 -24 -50 -21 -18 4 -199 -22 -264 -38 -16 -4&#10;-55 -34 -86 -67 -38 -39 -63 -57 -73 -53 -11 4 -24 -8 -46 -42 -43 -71 -174&#10;-229 -310 -377 -112 -120 -122 -134 -162 -230 -66 -158 -275 -634 -331 -754&#10;-61 -129 -101 -239 -109 -297 -8 -52 -14 -65 -48 -95 -31 -27 -51 -61 -87&#10;-148 l-48 -113 32 -37 c17 -20 66 -82 108 -137 124 -160 175 -196 257 -181 39&#10;7 56 33 56 82 0 32 42 156 86 251 18 40 29 75 24 78 -4 3 -36 9 -69 13 -47 7&#10;-69 16 -91 37 -48 46 -38 70 18 41 15 -8 46 -17 67 -20 40 -6 40 -6 10 6 -55&#10;24 -85 49 -85 74 0 28 5 29 54 9 63 -27 191 -38 270 -24 71 12 71 13 158 99&#10;109 110 164 216 203 390 29 128 43 367 31 502 l-8 76 -61 0 c-45 -1 -77 6&#10;-117 23 l-55 24 100 6 c55 3 123 13 152 23 58 19 46 -2 128 226 24 68 42 126&#10;40 128 -2 3 -18 -1 -35 -8 -29 -12 -107 -16 -117 -6 -11 10 9 26 33 26 41 0&#10;90 26 114 60 29 40 38 114 18 138 -30 34 -27 37 36 37 53 0 69 5 113 33 36 23&#10;56 44 65 68 14 39 18 40 61 17 26 -15 56 -18 164 -17 118 1 135 4 168 24 44&#10;27 68 61 63 91 -2 18 -13 25 -53 34 -27 7 -88 26 -134 44 -105 39 -149 40&#10;-190 5z" id="node8" class="node"/>
<path d="M2270 2599 c0 -13 41 -48 57 -49 29 0 20 21 -17 40 -24 12 -40 16&#10;-40 9z" id="node9" class="node"/>
<path d="M2446 2534 c-10 -27 3 -30 27 -6 l21 22 -21 0 c-11 0 -24 -7 -27 -16z" id="node10" class="node"/>
<path d="M1601 2370 c-28 -22 -51 -45 -51 -50 0 -5 17 -14 37 -19 47 -13 74 3&#10;103 59 26 50 26 50 -9 50 -19 0 -47 -14 -80 -40z" id="node11" class="node"/>
<path d="M1497 2283 c-4 -3 -7 -22 -7 -42 0 -22 -16 -67 -40 -116 -40 -81&#10;-112 -266 -105 -273 2 -2 19 30 39 71 20 42 40 78 46 82 14 9 13 0 -9 -48 -25&#10;-55 -36 -97 -24 -97 12 0 95 88 117 123 23 37 55 127 70 198 13 56 13 56 -13&#10;67 -14 6 -35 18 -47 27 -11 8 -24 12 -27 8z" id="node12" class="node"/>
<path d="M1428 1816 c-38 -28 -97 -69 -134 -91 l-65 -40 5 -65 c3 -36 11 -110&#10;18 -165 7 -55 13 -154 13 -220 -1 -104 -4 -132 -29 -210 -28 -86 -89 -220&#10;-134 -295 -12 -19 -22 -43 -22 -54 0 -23 27 -19 171 28 57 19 145 46 194 61&#10;l90 27 127 126 c70 69 132 128 138 132 7 4 7 26 1 71 -39 250 -56 307 -115&#10;369 -19 19 -36 47 -40 63 -4 19 -22 37 -54 57 -27 16 -54 40 -60 52 -7 13 -16&#10;63 -21 111 -5 48 -10 89 -12 91 -2 2 -34 -20 -71 -48z m32 -331 c0 -7 -34 -20&#10;-75 -29 l-30 -7 30 21 c27 18 75 28 75 15z" id="node13" class="node" stroke-width="20"/>
<path d="M2422 1786 c-46 -15 -159 -80 -206 -119 l-29 -24 12 -94 c8 -52 21&#10;-120 31 -151 10 -32 14 -58 9 -58 -16 0 -44 54 -76 149 -17 53 -36 97 -41 99&#10;-10 3 -103 -45 -154 -80 -16 -11 -28 -28 -28 -38 0 -27 -18 -35 -38 -17 -15&#10;14 -47 21 -79 18 -18 -1 -17 -70 1 -123 8 -24 18 -83 21 -133 4 -49 11 -102&#10;17 -117 l10 -27 41 18 c23 10 121 57 217 103 96 47 189 90 206 97 36 14 77 56&#10;157 158 37 46 77 83 114 106 32 20 71 49 87 66 49 51 27 111 -59 158 -40 22&#10;-158 27 -213 9z" id="node14" class="node" stroke-width="20"/>

<path d="M1038 543 c-30 -47 -50 -83 -45 -83 9 0 80 110 75 115 -3 3 -16 -12&#10;-30 -32z" id="node16" class="node"/>
<path d="M888 478 c-35 -47 -82 -135 -103 -191 -33 -87 -7 -60 52 54 91 178&#10;99 201 51 137z" id="node17" class="node"/>
<path d="M689 458 c-22 -24 -52 -68 -66 -98 -24 -51 -83 -240 -83 -267 0 -19&#10;79 -16 120 5 24 11 36 25 38 42 4 32 38 143 51 167 5 10 27 57 50 106 l40 87&#10;-55 0 c-52 0 -58 -2 -95 -42z" id="node18" class="node"/>

<path d="M936 373 c-6 -14 -5 -15 5 -6 7 7 10 15 7 18 -3 3 -9 -2 -12 -12z" id="node20" class="node"/>
<path d="M896 305 c-9 -26 -7 -32 5 -12 6 10 9 21 6 23 -2 3 -7 -2 -11 -11z" id="node21" class="node"/>
</g></g><g transform="matrix(0.08193301516273642, -0.0014461588084100892, 0.0014461588084100892, 0.08193301516273642, 177.86590754347384, 10.02948289488954)"><g id="Layer_1">
    <path d="M487.477,0.021 C485.08,-0.056 482.973,0.078 481.23,0.446 C437.926,9.564 403.555,26.426 368.583,45.878 C333.099,65.614 296.215,75.775 268.08,105.775 C247.856,126.238 231.566,131.893 196.413,130.634 C161.113,129.369 131.323,126.931 99.99,122.753 C86.228,120.918 71.822,120.146 58.491,118.373 C32.268,114.885 11.447,113.267 4.489,114.213 C-6.015,115.641 3.623,123.861 15.849,123.903 C22.928,123.925 34.667,124.604 41.931,125.419 C70.002,128.568 102.055,129.402 126.738,132.838 C147.01,135.66 189.686,137.273 216.533,137.819 C236.14,138.217 247.261,137.222 246.137,150.013 C245.361,158.837 246.876,214.88 250.883,231.671 C252.212,237.238 256.761,246.083 260.082,251.893 C264.893,260.308 277.382,272.273 288.925,280.267 C315.484,298.659 308.686,286.488 293.261,274.781 C283.504,267.377 272.138,254.072 266.564,243.427 C258.134,227.326 256.591,219.194 254.787,181.119 C253.651,157.034 253.938,136.487 255.439,135.46 C257.149,161.119 263.115,186.395 268.908,201.825 C274.13,215.736 287.341,236.689 286.999,228.947 C286.858,225.753 284.932,221.499 280.261,213.134 C275.589,204.768 272.385,194.059 269.575,184.899 C262.845,162.965 260.91,143.224 261.54,133.607 C262.17,123.99 285.477,95.046 300.659,87.802 C359.518,59.713 427.203,24.327 470.485,11.52 C500.328,2.689 518.882,17.191 529.87,21.246 C544.089,26.495 571.826,53.253 596.813,73.966 C621.801,94.68 640.269,103.875 648.464,124.481 C652.933,135.72 657.639,158.134 658,178.981 C658.139,187.007 654.887,191.42 651.877,192.406 C640.767,196.046 637.586,194.978 627.165,207.289 C619.827,215.958 622.676,234.093 631.252,250.165 C638.208,263.202 654.715,274.969 672.436,264.066 C666.176,277.144 654.516,283.101 632.834,278.854 C609.561,273.767 577.971,232.38 567.114,192.728 C563.596,179.88 561.123,175.261 565.561,164.808 C570.122,154.064 585.287,140.721 593.027,134.962 C603.496,127.171 597.86,124.38 586.472,132.662 C574.523,141.352 573.513,145.916 559.423,152.584 C539.475,162.026 528.613,154.676 517.536,144.74 C512.546,140.264 507.008,136.58 494.443,113.246 C481.878,89.912 482.267,72.129 485.17,62.203 C488.583,50.537 482.759,48.812 479.838,63.075 C472.412,85.989 484.274,112.275 493.806,131.981 C482.489,131.939 446.444,73.565 442.924,58.3 C441.549,52.336 431.588,46.326 437.131,60.966 C447.057,87.181 461.111,113.263 485.851,136.639 C494.54,142.183 497.777,155.362 480.878,153.815 C472.335,153.033 468.309,150.276 463.6,146.154 C449.12,133.474 438.342,136.353 459.286,151.31 C464.183,154.806 469.681,157.706 474.169,159.821 C483.079,164.018 483.076,165.677 474.184,190.377 C461.963,224.324 452.353,237.162 421.787,260.36 C400.005,276.891 368.098,289.818 352.309,295.773 C344.767,298.617 346.817,302.596 356.118,298.761 C392.729,283.665 418.649,274.655 450.234,240.577 C459.292,229.942 469.738,217.704 470.83,219.301 C471.923,220.897 459.846,238.499 446.616,252.494 C428.698,271.448 416.925,280.284 400.466,287.145 C388.314,292.211 375.074,298.108 371.045,300.248 C355.965,308.254 383.121,300.561 400.415,291.927 C417.716,283.29 418.611,283.517 417.854,296.241 C417.22,306.902 412.079,312.627 393.054,324.059 C383.904,329.557 382.8,333.148 394.46,327.64 C397.638,326.139 400.703,324.377 402.934,322.821 C415.61,313.982 419.52,315.604 413.943,327.391 C406.522,343.073 383.799,367.775 364.394,381.393 C347.118,393.517 338.843,406.255 367.668,385.465 C379.521,376.916 392.119,365.555 400.371,355.377 L418.857,332.577 L418.645,357.311 C418.494,374.898 416.314,385.203 411.116,392.965 C401.373,407.513 407.373,406.707 417.876,392.057 L425.735,377.511 C450.539,400.121 442.91,396.779 472.617,413.297 C505.704,431.695 494.08,442.718 491.946,452.797 C489.425,464.701 493.963,468.665 498.179,458.275 C503.298,445.658 501.466,439.863 507.912,438.229 C522.138,434.623 537.566,441.918 546.562,453.119 C550.511,458.035 563.465,470.928 548.298,472.008 C514.786,474.394 388.188,473.682 337.698,457.374 C280.225,438.812 237.604,406.43 235.254,396.51 C230.138,374.91 233.994,340.017 252.29,316.398 C259.078,307.635 251.576,309.376 247.375,314.083 C235.403,327.502 231.323,347.072 227.182,361.808 C224.49,371.391 222.084,382.323 221.975,386.139 C221.866,389.955 220.827,389.995 215.552,390.175 C184.136,391.241 158.278,392.181 123.999,396.363 C86.942,400.885 56.515,400.615 23.218,408.646 C11.428,411.49 17.67,416.593 24.814,416.593 C38.418,415.959 71.29,411.171 111.401,408.009 C221.997,399.29 215.3,398.15 256.047,430.787 C316.149,478.927 417.699,487.992 492.37,487.162 C541.116,486.62 596.375,493.967 647.058,449.274 C666.957,432.142 678.236,410.211 669.338,383.048 C713.85,383.515 753.947,340.153 736.34,289.562 C745.976,289.018 756.423,285.552 766.626,279.366 C783.61,265.578 791.186,258.067 795.476,230.382 C800.176,200.056 778.662,169.321 741.863,162.64 L764.407,161.842 C785.512,158.497 953.615,151.466 1013.569,151.42 C1038.345,151.401 1054.601,151.093 1064.59,145.795 C1076.702,139.37 1084.691,119.793 1083.398,102.75 C1082.424,89.911 1071.121,76.808 1055.969,70.524 C1045.438,67.97 1037.743,65.9 1004.509,60.402 C971.275,54.903 939.302,51.852 930.029,50.463 C922.103,49.275 891.564,48.383 837.927,47.716 C793.578,47.164 740.227,45.431 692.776,41.901 C645.284,38.367 628.556,36.285 598.813,32.057 C575.164,28.695 565.566,29.38 553.301,22.067 C535.167,11.254 504.262,0.558 487.478,0.021 z M571.948,42.399 C601.707,45.213 614.216,46.427 643.989,49.584 C710.231,56.608 763.137,57.145 829.116,60.028 C860.836,61.414 888.937,59.763 921.174,61.881 C956.938,64.232 995.778,70.044 1026.02,76.259 C1062.702,83.797 1072.67,90.583 1073.51,108.617 C1074.175,122.88 1064.986,135.129 1050.285,139.554 C1044.942,141.163 1024.234,142.039 1004.282,141.51 C967.438,140.534 940.379,142.852 883.102,143.634 C865.563,143.874 849.301,143.463 846.965,142.719 C844.47,134.065 848.626,111.327 848.393,96.7 C848.095,77.966 840.247,63.967 840.615,95.148 C840.748,106.459 839.264,117.348 837.978,129.396 C836.066,147.299 844.134,143.676 768.588,148.014 C746.551,149.279 730.041,152.491 728.723,148.49 C726.637,142.161 724.046,106.953 725.075,86.344 C725.469,78.452 719.958,73.748 717.927,85.487 C714.754,103.818 716.593,121.972 717.831,138.851 C718.755,151.439 716.141,155.223 698.144,154.789 C686.385,154.505 676.096,156.556 664.409,155.411 C660.637,137.412 660.742,117.884 642.846,103.094 C630.457,92.856 601.127,64.39 571.948,42.399 z M692.372,167.291 C707.543,167.288 722.594,168.341 736.208,170.917 L736.215,170.917 C750.432,173.67 769.737,185.425 776.814,193.607 C786.683,205.019 796.437,220.877 779.362,250.48 C762.295,280.082 733.83,283.313 726.181,275.953 C709.152,259.568 675.636,269.257 676.347,257.921 C677.603,237.914 669.603,216.729 664.987,196.031 C663.089,187.518 666.37,177.742 665.222,168.346 C674.13,167.678 683.27,167.294 692.373,167.291 z M536.462,168.134 C544.705,168.318 551.058,169.63 552.473,172.037 C553.257,173.373 552.663,177.42 563.166,205.604 C571.469,227.877 572.299,231.716 581.315,242.35 C585.84,247.686 585.438,251.608 576.833,250.912 C573.322,250.628 565.862,249.464 554.465,248.583 C515.079,245.536 502.806,243.181 491.491,236.498 C486.448,233.519 477.994,224.841 477.919,223.344 C477.846,221.846 490.503,230.891 511.911,230.118 C528.825,229.555 536.758,225.165 538.52,216.444 C539.534,211.419 539.661,203.664 538.586,194.589 C538.083,180.082 526.206,175.443 513.002,177.142 C498.127,179.057 497.272,181.725 487.119,183.602 C491.049,172.776 518.328,167.728 536.462,168.134 z M512.783,184.357 C514.771,184.31 516.787,184.345 518.803,184.437 C526.989,185.207 533.524,184.223 534.411,199.174 C535.732,220.658 527.224,223.084 510.007,223.886 C484.702,225.064 477.347,216.815 481.332,204.147 C486.123,188.922 498.866,184.682 512.783,184.357 z M653.408,198.998 C657.422,198.699 658.115,201.242 659.56,206.937 C663.293,221.577 668.463,235.501 669.177,250.743 C669.617,260.128 668.049,262.091 660.234,262.667 C646.917,263.648 634.379,252.047 630.761,235.392 C626.873,217.495 629.76,207.123 638.891,203.297 C644.314,201.025 646.461,199.516 653.408,198.998 z M476.14,248.744 C483.323,248.645 491.432,249.375 497.592,250.978 C504.459,252.764 523.275,255.014 543.918,256.515 C586.264,259.595 593.874,262.108 599.677,267.64 C640.237,296.806 656.159,294.897 680.573,273.778 C696.894,274.162 705.198,275.261 716.821,283.124 C730.21,292.181 733.07,301.341 728.869,321.693 C725.839,336.373 708.443,358.714 696.225,363.785 C684.581,368.619 656.551,373.36 625.773,369.052 C601.126,365.601 578.742,360.667 557.438,352.733 C532.83,343.569 508.203,333.917 486.818,327.655 C472.964,323.598 457.977,316.836 445.356,311.395 C431.653,305.488 423.03,293.579 442.338,304.452 C481.685,326.609 510.715,307.5 501.247,266.93 C499.24,258.33 484.067,253.771 466.896,254.486 C458.905,254.819 456.826,253.882 460.239,251.49 C462.695,249.769 468.956,248.843 476.14,248.744 z M463.864,259.781 C465.452,259.755 467.183,259.763 469.094,259.796 C491.798,260.196 498.031,264.706 498.222,280.89 C498.541,307.93 475.093,316.636 445.788,300.358 C430.973,292.129 430.507,285.181 443.649,268.564 C448.916,261.905 452.748,259.979 463.864,259.782 z M445.378,323.451 C448.634,323.349 454.289,324.353 461.513,327.04 C469.588,330.043 493.357,340.16 523.996,350.865 C554.635,361.571 566.556,368.438 605.405,375.123 C644.254,381.808 648.283,380.376 655.466,386.293 C667.842,396.487 662.846,420.932 645.82,436.815 C636.765,445.262 608.192,460.882 596.403,463.827 C567.057,471.158 566.263,471.086 559.24,460.37 C551.54,448.621 554.822,444.813 568.447,447.369 C580.994,449.723 588.02,449.504 600.307,449.991 C609.144,450.342 612.945,445.139 593.723,443.209 C565.304,440.356 565.968,443.117 529.907,431.022 C491.724,417.704 463.725,404.272 432.055,374.669 C424.707,367.801 423.809,360.637 435.219,368.019 C447.753,376.127 469.341,378.991 475.37,366.041 C488.54,348.013 472.521,336.612 452.944,330.519 C441.188,326.86 439.951,323.62 445.378,323.451 z M442.426,332.819 C446.657,333.089 451.302,336.42 458.327,339.052 C473.284,344.654 475.849,347.047 474.792,354.403 C473.41,364.02 464.599,370.854 457.587,369.623 C442.875,367.04 432.51,362.193 430.978,356.835 C430.004,353.427 428.648,344.816 432.385,339.513 C436.094,334.249 439.135,332.608 442.426,332.819 z" fill="#000000" id="path1017"/>
    <path d="M961.14,129.22 C961.952,126.755 961.86,115.168 962.941,103.796 C965.227,79.738 958.495,83.829 958.162,101.414 C958.037,108.012 957.236,118.101 956.215,123.818 C954.792,131.784 958.391,137.574 961.14,129.22 z" fill="#000000" id="path880"/>
  </g></g><path d="M 357.86920166015625 248.4517059326172 C 354.00921630859375 248.4517059326172 352.0792236328125 247.0517120361328 352.0792236328125 244.251708984375 C 352.0792236328125 243.81837463378906 352.12921142578125 243.35171508789062 352.2292175292969 242.85171508789062 L 352.5392150878906 241.0817108154297 L 356.8592224121094 241.0817108154297 L 356.7091979980469 241.8717041015625 C 356.6492004394531 242.27171325683594 356.61920166015625 242.67837524414062 356.61920166015625 243.09170532226562 C 356.61920166015625 243.51170349121094 356.7225341796875 243.85838317871094 356.92919921875 244.1317138671875 C 357.24920654296875 244.53170776367188 357.77587890625 244.73170471191406 358.50921630859375 244.73170471191406 C 359.24920654296875 244.73170471191406 359.84588623046875 244.53170776367188 360.2992248535156 244.1317138671875 C 360.75921630859375 243.73170471191406 361.0825500488281 242.9950408935547 361.26922607421875 241.9217071533203 L 363.23919677734375 230.81170654296875 L 367.5392150878906 230.81170654296875 L 365.51922607421875 242.251708984375 C 365.1525573730469 244.38504028320312 364.3525390625 245.9517059326172 363.11920166015625 246.9517059326172 C 361.8858642578125 247.9517059326172 360.1358642578125 248.4517059326172 357.86920166015625 248.4517059326172 ZM 379.07635498046875 244.41171264648438 C 379.07635498046875 244.8317108154297 379.2897033691406 245.0417022705078 379.71636962890625 245.0417022705078 C 380.1430358886719 245.0417022705078 380.49969482421875 244.9617156982422 380.7863464355469 244.8017120361328 L 380.6663513183594 247.51170349121094 C 379.8996887207031 248.1383819580078 379.0363464355469 248.4517059326172 378.07635498046875 248.4517059326172 C 376.31634521484375 248.4517059326172 375.3396911621094 247.81170654296875 375.1463623046875 246.53170776367188 C 374.3463439941406 247.81170654296875 373.169677734375 248.4517059326172 371.6163635253906 248.4517059326172 C 368.98968505859375 248.4517059326172 367.6763610839844 247.32171630859375 367.6763610839844 245.06170654296875 C 367.6763610839844 244.6817169189453 367.71636962890625 244.2583770751953 367.7963562011719 243.7917022705078 L 368.3063659667969 240.98170471191406 C 368.5596923828125 239.54171752929688 369.1463623046875 238.39505004882812 370.06634521484375 237.54171752929688 C 370.9863586425781 236.68170166015625 372.1863708496094 236.251708984375 373.6663513183594 236.251708984375 C 375.1463623046875 236.251708984375 376.1496887207031 236.59837341308594 376.6763610839844 237.29171752929688 L 376.7963562011719 236.57171630859375 L 380.44635009765625 236.57171630859375 L 379.1063537597656 244.1317138671875 C 379.08636474609375 244.22503662109375 379.07635498046875 244.31837463378906 379.07635498046875 244.41171264648438 M 371.9763488769531 243.26170349121094 C 371.9430236816406 243.4083709716797 371.9263610839844 243.60838317871094 371.9263610839844 243.86170959472656 C 371.9263610839844 244.1217041015625 372.0463562011719 244.3750457763672 372.2863464355469 244.6217041015625 C 372.5263671875 244.86837768554688 372.9296875 244.99171447753906 373.4963684082031 244.99171447753906 C 374.0697021484375 244.99171447753906 374.5630187988281 244.76837158203125 374.9763488769531 244.32171630859375 L 375.69635009765625 240.2917022705078 C 375.52301025390625 239.89170837402344 375.1063537597656 239.69171142578125 374.44635009765625 239.69171142578125 C 373.2130126953125 239.69171142578125 372.4930114746094 240.28170776367188 372.2863464355469 241.4617156982422 L 371.9763488769531 243.26170349121094 ZM 394.44354248046875 236.57171630859375 C 394.6635437011719 237.23837280273438 394.7735290527344 238.1283721923828 394.7735290527344 239.24171447753906 C 394.7735290527344 240.35504150390625 394.6368713378906 241.425048828125 394.363525390625 242.4517059326172 C 394.09686279296875 243.47171020507812 393.6868591308594 244.44171142578125 393.133544921875 245.36170959472656 C 392.5802001953125 246.28170776367188 391.8102111816406 247.02503967285156 390.8235168457031 247.59170532226562 C 389.8435363769531 248.1650390625 388.7135314941406 248.4517059326172 387.43353271484375 248.4517059326172 C 385.43353271484375 248.4517059326172 384.0502014160156 248.0417022705078 383.2835388183594 247.22171020507812 C 382.77020263671875 246.6817169189453 382.5135192871094 245.85171508789062 382.5135192871094 244.73170471191406 C 382.5135192871094 244.19837951660156 382.5768737792969 243.59837341308594 382.7035217285156 242.9317169189453 L 383.8335266113281 236.57171630859375 L 387.9135437011719 236.57171630859375 L 386.7835388183594 242.9517059326172 C 386.73687744140625 243.19171142578125 386.7135314941406 243.4083709716797 386.7135314941406 243.60171508789062 C 386.7135314941406 244.51504516601562 387.18353271484375 244.97171020507812 388.12353515625 244.97171020507812 C 389.7901916503906 244.97171020507812 390.62353515625 243.22503662109375 390.62353515625 239.73170471191406 C 390.62353515625 238.9183807373047 390.5602111816406 238.01504516601562 390.43353271484375 237.02171325683594 L 390.363525390625 236.57171630859375 L 394.44354248046875 236.57171630859375 ZM 407.3707580566406 244.41171264648438 C 407.3707580566406 244.8317108154297 407.5841064453125 245.0417022705078 408.0107727050781 245.0417022705078 C 408.43743896484375 245.0417022705078 408.7940979003906 244.9617156982422 409.08074951171875 244.8017120361328 L 408.96075439453125 247.51170349121094 C 408.194091796875 248.1383819580078 407.33074951171875 248.4517059326172 406.3707580566406 248.4517059326172 C 404.6107482910156 248.4517059326172 403.63409423828125 247.81170654296875 403.4407653808594 246.53170776367188 C 402.6407470703125 247.81170654296875 401.4640808105469 248.4517059326172 399.9107666015625 248.4517059326172 C 397.2840881347656 248.4517059326172 395.97076416015625 247.32171630859375 395.97076416015625 245.06170654296875 C 395.97076416015625 244.6817169189453 396.0107727050781 244.2583770751953 396.09075927734375 243.7917022705078 L 396.60076904296875 240.98170471191406 C 396.8540954589844 239.54171752929688 397.4407653808594 238.39505004882812 398.3607482910156 237.54171752929688 C 399.28076171875 236.68170166015625 400.48077392578125 236.251708984375 401.96075439453125 236.251708984375 C 403.4407653808594 236.251708984375 404.444091796875 236.59837341308594 404.97076416015625 237.29171752929688 L 405.09075927734375 236.57171630859375 L 408.7407531738281 236.57171630859375 L 407.4007568359375 244.1317138671875 C 407.3807678222656 244.22503662109375 407.3707580566406 244.31837463378906 407.3707580566406 244.41171264648438 M 400.270751953125 243.26170349121094 C 400.2374267578125 243.4083709716797 400.22076416015625 243.60838317871094 400.22076416015625 243.86170959472656 C 400.22076416015625 244.1217041015625 400.34075927734375 244.3750457763672 400.58074951171875 244.6217041015625 C 400.8207702636719 244.86837768554688 401.2240905761719 244.99171447753906 401.790771484375 244.99171447753906 C 402.3641052246094 244.99171447753906 402.857421875 244.76837158203125 403.270751953125 244.32171630859375 L 403.9907531738281 240.2917022705078 C 403.8174133300781 239.89170837402344 403.4007568359375 239.69171142578125 402.7407531738281 239.69171142578125 C 401.5074157714844 239.69171142578125 400.78741455078125 240.28170776367188 400.58074951171875 241.4617156982422 L 400.270751953125 243.26170349121094 Z" transform="matrix(1.7977092266082764, 0, 0, 1.7977092266082764, -565.1306762695312, -400.6163635253906)" style="fill: rgb(51, 51, 51); white-space: pre; color: rgb(51, 51, 51);"/><path d="M 356.20928955078125 373.8017272949219 L 339.83929443359375 372.72174072265625 L 356.3992919921875 372.72174072265625 L 356.20928955078125 373.8017272949219 M 356.60931396484375 371.47174072265625 L 346.4393005371094 370.3917236328125 L 356.8092956542969 370.3917236328125 L 356.60931396484375 371.47174072265625 M 359.1792907714844 362.2517395019531 L 349.0093078613281 361.1717224121094 L 359.2492980957031 361.1717224121094 L 359.1792907714844 362.2517395019531 M 359.34930419921875 359.95172119140625 L 349.1993103027344 358.8717346191406 L 359.4193115234375 358.8717346191406 L 359.34930419921875 359.95172119140625 M 350.72930908203125 365.78173828125 L 361.09930419921875 365.78173828125 L 360.1893005371094 366.791748046875 L 350.72930908203125 365.78173828125 M 348.6492919921875 368.09173583984375 L 359.0093078613281 368.09173583984375 L 358.09930419921875 369.09173583984375 L 348.6492919921875 368.09173583984375 M 352.79931640625 363.4817199707031 L 363.1693115234375 363.4817199707031 L 362.2492980957031 364.4917297363281 L 352.79931640625 363.4817199707031 M 369.23931884765625 373.8717346191406 L 356.9493103027344 373.8717346191406 L 357.47930908203125 370.8717346191406 L 364.6993103027344 362.85174560546875 L 364.6492919921875 362.71173095703125 L 359.8793029785156 362.71173095703125 L 360.1393127441406 358.8717346191406 L 371.779296875 358.8717346191406 L 371.2492980957031 361.8717346191406 L 364.0793151855469 369.8917236328125 L 364.09930419921875 370.03173828125 L 369.9093017578125 370.03173828125 L 369.23931884765625 373.8717346191406 ZM 384.7186279296875 368.71173095703125 L 381.13861083984375 368.71173095703125 L 380.8486022949219 370.34173583984375 L 385.2886047363281 370.34173583984375 L 384.6686096191406 373.8717346191406 L 376.1986083984375 373.8717346191406 L 378.39862060546875 361.1717224121094 L 386.8486022949219 361.1717224121094 L 385.7186279296875 364.771728515625 L 381.8086242675781 364.771728515625 L 381.51861572265625 366.4117431640625 L 385.1186218261719 366.4117431640625 L 384.7186279296875 368.71173095703125 M 375.39862060546875 373.8017272949219 L 365.2286071777344 372.72174072265625 L 375.5986022949219 372.72174072265625 L 375.39862060546875 373.8017272949219 M 376.2186279296875 369.1717224121094 L 366.0386047363281 368.09173583984375 L 376.4085998535156 368.09173583984375 L 376.2186279296875 369.1717224121094 M 376.62860107421875 366.8617248535156 L 366.4486083984375 365.78173828125 L 376.818603515625 365.78173828125 L 376.62860107421875 366.8617248535156 M 377.0386047363281 364.5617370605469 L 366.8586120605469 363.4817199707031 L 377.2286071777344 363.4817199707031 L 377.0386047363281 364.5617370605469 M 377.4386291503906 362.2517395019531 L 367.26861572265625 361.1717224121094 L 377.6086120605469 361.1717224121094 L 377.4386291503906 362.2517395019531 M 375.8086242675781 371.47174072265625 L 365.63861083984375 370.3917236328125 L 375.9986267089844 370.3917236328125 L 375.8086242675781 371.47174072265625 ZM 400.2402648925781 361.1717224121094 C 402.5735778808594 361.1717224121094 403.7402648925781 362.2283935546875 403.7402648925781 364.34173583984375 C 403.7402648925781 365.3017272949219 403.5502624511719 366.29840087890625 403.1702575683594 367.33172607421875 C 402.7835998535156 368.3650817871094 402.1335754394531 369.1383972167969 401.2202453613281 369.6517333984375 L 402.5902404785156 373.8717346191406 L 398.1002502441406 373.8717346191406 L 397.19024658203125 370.1717224121094 L 396.6202392578125 370.1717224121094 L 395.9702453613281 373.8717346191406 L 391.94024658203125 373.8717346191406 L 394.1402587890625 361.1717224121094 L 400.2402648925781 361.1717224121094 M 399.3502502441406 365.33172607421875 C 399.3502502441406 365.3117370605469 399.3602600097656 365.2317199707031 399.3802490234375 365.09173583984375 C 399.3802490234375 364.8183898925781 398.9535827636719 364.6817321777344 398.1002502441406 364.6817321777344 L 397.58026123046875 364.6817321777344 L 397.19024658203125 366.8917236328125 L 397.96026611328125 366.8917236328125 C 398.6935729980469 366.8917236328125 399.1102600097656 366.6517333984375 399.21026611328125 366.1717224121094 L 399.3502502441406 365.33172607421875 M 391.1402587890625 373.8017272949219 L 380.9702453613281 372.72174072265625 L 391.3402404785156 372.72174072265625 L 391.1402587890625 373.8017272949219 M 391.96026611328125 369.1717224121094 L 381.7802429199219 368.09173583984375 L 392.1502380371094 368.09173583984375 L 391.96026611328125 369.1717224121094 M 392.3702392578125 366.8617248535156 L 382.19024658203125 365.78173828125 L 392.56024169921875 365.78173828125 L 392.3702392578125 366.8617248535156 M 392.7802429199219 364.5617370605469 L 382.6002502441406 363.4817199707031 L 392.9702453613281 363.4817199707031 L 392.7802429199219 364.5617370605469 M 393.1802673339844 362.2517395019531 L 383.01025390625 361.1717224121094 L 393.3502502441406 361.1717224121094 L 393.1802673339844 362.2517395019531 M 391.5502624511719 371.47174072265625 L 381.3802490234375 370.3917236328125 L 391.7402648925781 370.3917236328125 L 391.5502624511719 371.47174072265625 ZM 416.5616760253906 360.9317321777344 C 418.288330078125 360.9317321777344 419.5183410644531 361.26507568359375 420.2516784667969 361.9317321777344 C 420.9916687011719 362.598388671875 421.3616638183594 363.63507080078125 421.3616638183594 365.041748046875 C 421.3616638183594 365.7283935546875 421.27166748046875 366.55841064453125 421.0916748046875 367.53173828125 C 420.6916809082031 369.8384094238281 419.98834228515625 371.5184020996094 418.981689453125 372.5717468261719 C 417.9750061035156 373.6317443847656 416.39166259765625 374.1617431640625 414.231689453125 374.1617431640625 C 412.53167724609375 374.1617431640625 411.3216857910156 373.8283996582031 410.6016845703125 373.1617431640625 C 409.8816833496094 372.5017395019531 409.52166748046875 371.4750671386719 409.52166748046875 370.08172607421875 C 409.52166748046875 369.3617248535156 409.6116638183594 368.5117492675781 409.79168701171875 367.53173828125 C 410.1916809082031 365.2317199707031 410.8883361816406 363.55841064453125 411.8816833496094 362.5117492675781 C 412.86834716796875 361.4584045410156 414.4283447265625 360.9317321777344 416.5616760253906 360.9317321777344 M 414.9216613769531 370.5117492675781 C 415.3883361816406 370.5117492675781 415.73834228515625 370.455078125 415.9716796875 370.34173583984375 C 416.20501708984375 370.2283935546875 416.3616638183594 369.9817199707031 416.4416809082031 369.60174560546875 L 417.3516845703125 364.58172607421875 L 415.8816833496094 364.58172607421875 C 415.43499755859375 364.58172607421875 415.0883483886719 364.6383972167969 414.8416748046875 364.7517395019531 C 414.5950012207031 364.8650817871094 414.4483337402344 365.1050720214844 414.40167236328125 365.47174072265625 L 413.5116882324219 370.5117492675781 L 414.9216613769531 370.5117492675781 M 408.95166015625 368.09173583984375 C 408.885009765625 368.5850830078125 408.8450012207031 368.91839599609375 408.8316650390625 369.09173583984375 L 399.3716735839844 368.09173583984375 L 408.95166015625 368.09173583984375 M 409.40167236328125 365.78173828125 L 409.1916809082031 366.791748046875 L 399.8016662597656 365.78173828125 L 409.40167236328125 365.78173828125 M 408.8016662597656 370.3917236328125 C 408.8016662597656 370.64508056640625 408.83502197265625 370.9817199707031 408.90167236328125 371.4017333984375 L 399.4716796875 370.3917236328125 L 408.8016662597656 370.3917236328125 M 410.2416687011719 363.4817199707031 C 410.05499267578125 363.89508056640625 409.9216613769531 364.2150573730469 409.8416748046875 364.4417419433594 L 400.7616882324219 363.4817199707031 L 410.2416687011719 363.4817199707031 M 409.3116760253906 372.72174072265625 C 409.5050048828125 373.10174560546875 409.711669921875 373.3984069824219 409.9316711425781 373.6117248535156 L 401.5616760253906 372.72174072265625 L 409.3116760253906 372.72174072265625 M 412.3316650390625 361.1717224121094 C 411.95166015625 361.3984069824219 411.625 361.6650695800781 411.3516845703125 361.97174072265625 L 403.981689453125 361.1717224121094 L 412.3316650390625 361.1717224121094 ZM 442.4042053222656 364.771728515625 L 439.814208984375 364.771728515625 L 438.2242126464844 373.8717346191406 L 434.00421142578125 373.8717346191406 L 435.584228515625 364.771728515625 L 432.9242248535156 364.771728515625 L 433.57421875 361.1717224121094 L 443.0542297363281 361.1717224121094 L 442.4042053222656 364.771728515625 M 433.2842102050781 373.8017272949219 L 423.1042175292969 372.72174072265625 L 433.4742126464844 372.72174072265625 L 433.2842102050781 373.8017272949219 M 434.0942077636719 369.1717224121094 L 423.9242248535156 368.09173583984375 L 434.2942199707031 368.09173583984375 L 434.0942077636719 369.1717224121094 M 434.50421142578125 366.8617248535156 L 424.334228515625 365.78173828125 L 434.6942138671875 365.78173828125 L 434.50421142578125 366.8617248535156 M 432.2042236328125 364.5617370605469 L 422.02423095703125 363.4817199707031 L 432.39422607421875 363.4817199707031 L 432.2042236328125 364.5617370605469 M 432.6142272949219 362.2517395019531 L 422.4342041015625 361.1717224121094 L 432.77423095703125 361.1717224121094 L 432.6142272949219 362.2517395019531 M 433.6942138671875 371.47174072265625 L 423.51422119140625 370.3917236328125 L 433.88421630859375 370.3917236328125 L 433.6942138671875 371.47174072265625 ZM 454.52398681640625 360.9317321777344 C 456.2506408691406 360.9317321777344 457.48065185546875 361.26507568359375 458.2139892578125 361.9317321777344 C 458.9539794921875 362.598388671875 459.323974609375 363.63507080078125 459.323974609375 365.041748046875 C 459.323974609375 365.7283935546875 459.2339782714844 366.55841064453125 459.0539855957031 367.53173828125 C 458.65399169921875 369.8384094238281 457.9506530761719 371.5184020996094 456.9440002441406 372.5717468261719 C 455.93731689453125 373.6317443847656 454.3539733886719 374.1617431640625 452.1940002441406 374.1617431640625 C 450.4939880371094 374.1617431640625 449.28399658203125 373.8283996582031 448.5639953613281 373.1617431640625 C 447.843994140625 372.5017395019531 447.4839782714844 371.4750671386719 447.4839782714844 370.08172607421875 C 447.4839782714844 369.3617248535156 447.573974609375 368.5117492675781 447.7539978027344 367.53173828125 C 448.15399169921875 365.2317199707031 448.85064697265625 363.55841064453125 449.843994140625 362.5117492675781 C 450.8306579589844 361.4584045410156 452.3906555175781 360.9317321777344 454.52398681640625 360.9317321777344 M 452.88397216796875 370.5117492675781 C 453.35064697265625 370.5117492675781 453.7006530761719 370.455078125 453.9339904785156 370.34173583984375 C 454.1673278808594 370.2283935546875 454.323974609375 369.9817199707031 454.40399169921875 369.60174560546875 L 455.3139953613281 364.58172607421875 L 453.843994140625 364.58172607421875 C 453.3973083496094 364.58172607421875 453.0506591796875 364.6383972167969 452.8039855957031 364.7517395019531 C 452.55731201171875 364.8650817871094 452.41064453125 365.1050720214844 452.3639831542969 365.47174072265625 L 451.4739990234375 370.5117492675781 L 452.88397216796875 370.5117492675781 M 446.9139709472656 368.09173583984375 C 446.8473205566406 368.5850830078125 446.80731201171875 368.91839599609375 446.7939758300781 369.09173583984375 L 437.333984375 368.09173583984375 L 446.9139709472656 368.09173583984375 M 447.3639831542969 365.78173828125 L 447.15399169921875 366.791748046875 L 437.76397705078125 365.78173828125 L 447.3639831542969 365.78173828125 M 446.76397705078125 370.3917236328125 C 446.76397705078125 370.64508056640625 446.7973327636719 370.9817199707031 446.8639831542969 371.4017333984375 L 437.4339904785156 370.3917236328125 L 446.76397705078125 370.3917236328125 M 448.2039794921875 363.4817199707031 C 448.017333984375 363.89508056640625 447.88397216796875 364.2150573730469 447.8039855957031 364.4417419433594 L 438.7239990234375 363.4817199707031 L 448.2039794921875 363.4817199707031 M 447.27398681640625 372.72174072265625 C 447.4673156738281 373.10174560546875 447.6739807128906 373.3984069824219 447.89398193359375 373.6117248535156 L 439.52398681640625 372.72174072265625 L 447.27398681640625 372.72174072265625 M 450.2939758300781 361.1717224121094 C 449.9139709472656 361.3984069824219 449.5873107910156 361.6650695800781 449.3139953613281 361.97174072265625 L 441.9440002441406 361.1717224121094 L 450.2939758300781 361.1717224121094 ZM 476.7165222167969 370.1317443847656 C 477.34320068359375 370.1317443847656 477.8065185546875 370.0550537109375 478.1065368652344 369.9017333984375 C 478.4132080078125 369.7484130859375 478.6131896972656 369.3984069824219 478.70654296875 368.85174560546875 L 479.8165283203125 362.6117248535156 L 477.8965148925781 362.6117248535156 C 477.283203125 362.6117248535156 476.8265380859375 362.68841552734375 476.5265197753906 362.84173583984375 C 476.2198486328125 362.99505615234375 476.0198669433594 363.3450622558594 475.926513671875 363.8917236328125 L 474.8165283203125 370.1317443847656 L 476.7165222167969 370.1317443847656 M 478.6865234375 358.5117492675781 C 480.7198486328125 358.5117492675781 482.1665344238281 358.90838623046875 483.0265197753906 359.70172119140625 C 483.8931884765625 360.49505615234375 484.3265380859375 361.7150573730469 484.3265380859375 363.3617248535156 C 484.3265380859375 365.0083923339844 484.0665283203125 366.7317199707031 483.5465393066406 368.53173828125 C 483.0265197753906 370.33172607421875 482.20318603515625 371.7317199707031 481.0765380859375 372.7317199707031 C 479.9432067871094 373.7317199707031 478.2931823730469 374.2317199707031 476.12652587890625 374.2317199707031 C 473.9598693847656 374.2317199707031 472.4432067871094 373.8350830078125 471.5765380859375 373.041748046875 C 470.7165222167969 372.2484130859375 470.2865295410156 371.0284118652344 470.2865295410156 369.3817443847656 C 470.2865295410156 368.60174560546875 470.3965148925781 367.5650634765625 470.61651611328125 366.271728515625 C 470.84320068359375 364.9850769042969 471.1398620605469 363.87506103515625 471.50653076171875 362.9417419433594 C 471.8731994628906 362.0017395019531 472.369873046875 361.18841552734375 472.99652099609375 360.5017395019531 C 474.196533203125 359.1750793457031 476.09320068359375 358.5117492675781 478.6865234375 358.5117492675781 M 469.926513671875 366.2617492675781 C 469.8931884765625 366.3883972167969 469.85986328125 366.5650634765625 469.8265380859375 366.791748046875 L 460.3965148925781 365.78173828125 L 469.99652099609375 365.78173828125 L 469.926513671875 366.2617492675781 M 469.6565246582031 368.09173583984375 C 469.60986328125 368.4584045410156 469.5865173339844 368.791748046875 469.5865173339844 369.09173583984375 L 460.13653564453125 368.09173583984375 L 469.6565246582031 368.09173583984375 M 470.5765380859375 363.4817199707031 L 470.2865295410156 364.46173095703125 L 460.9765319824219 363.4817199707031 L 470.5765380859375 363.4817199707031 M 469.61651611328125 370.3917236328125 C 469.676513671875 370.8384094238281 469.7298583984375 371.1750793457031 469.7765197753906 371.4017333984375 L 460.446533203125 370.3917236328125 L 469.61651611328125 370.3917236328125 M 471.5565185546875 361.1717224121094 C 471.3298645019531 361.59173583984375 471.16986083984375 361.9117431640625 471.0765380859375 362.1317443847656 L 462.0965270996094 361.1717224121094 L 471.5565185546875 361.1717224121094 M 470.3365173339844 372.72174072265625 C 470.5431823730469 373.0884094238281 470.783203125 373.38507080078125 471.0565185546875 373.6117248535156 L 462.74652099609375 372.72174072265625 L 470.3365173339844 372.72174072265625 M 473.8365173339844 358.8717346191406 C 473.369873046875 359.15838623046875 473.0098571777344 359.4217224121094 472.75653076171875 359.6617431640625 L 465.4165344238281 358.8717346191406 L 473.8365173339844 358.8717346191406 ZM 497.2135925292969 373.8717346191406 L 494.73358154296875 369.1217346191406 L 494.6435852050781 369.1217346191406 L 493.8035888671875 373.8717346191406 L 489.7735900878906 373.8717346191406 L 491.9736022949219 361.1717224121094 L 495.24359130859375 361.1717224121094 L 497.73358154296875 365.9017333984375 L 497.88360595703125 365.9017333984375 L 498.693603515625 361.1717224121094 L 502.7035827636719 361.1717224121094 L 500.4736022949219 373.8717346191406 L 497.2135925292969 373.8717346191406 M 488.9736022949219 373.8017272949219 L 478.8035888671875 372.72174072265625 L 489.173583984375 372.72174072265625 L 488.9736022949219 373.8017272949219 M 489.7936096191406 369.1717224121094 L 479.61358642578125 368.09173583984375 L 489.98358154296875 368.09173583984375 L 489.7936096191406 369.1717224121094 M 490.2035827636719 366.8617248535156 L 480.0235900878906 365.78173828125 L 490.3935852050781 365.78173828125 L 490.2035827636719 366.8617248535156 M 490.61358642578125 364.5617370605469 L 480.43359375 363.4817199707031 L 490.8035888671875 363.4817199707031 L 490.61358642578125 364.5617370605469 M 491.01361083984375 362.2517395019531 L 480.8435974121094 361.1717224121094 L 491.18359375 361.1717224121094 L 491.01361083984375 362.2517395019531 M 489.38360595703125 371.47174072265625 L 479.2135925292969 370.3917236328125 L 489.5736083984375 370.3917236328125 L 489.38360595703125 371.47174072265625 ZM 516.746826171875 368.71173095703125 L 513.1668701171875 368.71173095703125 L 512.8768310546875 370.34173583984375 L 517.3168334960938 370.34173583984375 L 516.6968383789062 373.8717346191406 L 508.2268371582031 373.8717346191406 L 510.4268493652344 361.1717224121094 L 518.8768310546875 361.1717224121094 L 517.746826171875 364.771728515625 L 513.8368530273438 364.771728515625 L 513.5468139648438 366.4117431640625 L 517.1468505859375 366.4117431640625 L 516.746826171875 368.71173095703125 M 507.4268493652344 373.8017272949219 L 497.2568359375 372.72174072265625 L 507.6268310546875 372.72174072265625 L 507.4268493652344 373.8017272949219 M 508.2468566894531 369.1717224121094 L 498.06683349609375 368.09173583984375 L 508.43682861328125 368.09173583984375 L 508.2468566894531 369.1717224121094 M 508.6568298339844 366.8617248535156 L 498.4768371582031 365.78173828125 L 508.8468322753906 365.78173828125 L 508.6568298339844 366.8617248535156 M 509.06683349609375 364.5617370605469 L 498.8868408203125 363.4817199707031 L 509.2568359375 363.4817199707031 L 509.06683349609375 364.5617370605469 M 509.46685791015625 362.2517395019531 L 499.2968444824219 361.1717224121094 L 509.6368408203125 361.1717224121094 L 509.46685791015625 362.2517395019531 M 507.83685302734375 371.47174072265625 L 497.6668395996094 370.3917236328125 L 508.02685546875 370.3917236328125 L 507.83685302734375 371.47174072265625 Z" transform="matrix(1.171466588973999, 0, 0, 1.171466588973999, -376.2153015136719, -369.8710632324219)" style="fill: rgb(51, 51, 51); white-space: pre; color: rgb(51, 51, 51);"/></g></svg>