<svg width="1400" height="340" xmlns="http://www.w3.org/2000/svg">
 <g>
  <title>Layer 1</title>
  <g transform="matrix(5.238608429262021,0,0,5.238608429262021,-0.7422330033164175,-17.368243520367283) " id="svg_1">
   <g transform="matrix(0.18060434204538725,0,0,0.18060434204538725,0.11458058362393331,4.097629470120708) " id="svg_2">
    <g transform="translate(0,300) scale(0.10000000149011612,-0.10000000149011612) " fill="#282625" id="svg_3">
     <path d="m1494.28832,2981.70854c-33,-28 -82,-63 -108,-79c-45,-27 -109,-96 -204,-221c-113,-149 -221,-254 -319,-311c-48,-27 -52,-33 -68,-91c-23,-84 -50,-161 -102,-295c-48,-121 -111,-261 -239,-528c-245,-511 -279,-586 -362,-790c-25,-60 -52,-127 -60,-147c-15,-35 -15,-38 18,-95c57,-100 124,-194 208,-295l81,-98l88,0c48,1 114,7 147,14c33,8 94,21 135,30c97,22 177,59 212,99c15,18 69,106 120,197c51,91 108,182 127,203c47,53 109,81 221,102c152,29 181,47 333,208c129,137 202,197 240,197c10,0 39,8 65,19c26,10 85,33 132,51c200,75 295,145 355,260c13,25 40,56 62,70c159,104 203,151 203,220c0,58 -12,75 -90,126c-54,35 -81,45 -128,50c-102,11 -160,-14 -343,-147c-35,-26 -79,-50 -97,-54c-18,-4 -63,-27 -100,-52c-179,-120 -217,-116 -316,36c-94,145 -102,160 -126,239c-20,65 -21,75 -7,90c8,9 26,44 40,77c14,33 49,113 76,177c28,65 62,136 76,158l25,40l83,0c66,0 87,4 107,20c14,11 33,20 42,20c9,0 58,-20 109,-45c71,-35 104,-45 141,-45c57,0 73,8 196,89c97,66 107,82 90,149c-8,29 -26,50 -86,98c-166,132 -340,224 -508,270c-82,22 -125,27 -254,30l-155,4l-60,-50zm367,-14c135,-20 262,-61 283,-92c11,-16 25,-24 45,-24c36,0 129,-46 137,-68c4,-8 1,-23 -5,-32c-6,-10 -8,-27 -5,-39c5,-20 4,-21 -33,-7c-36,13 -217,97 -325,151c-39,19 -73,24 -235,34c-256,16 -249,14 -172,56c56,30 72,34 138,34c41,0 119,-6 172,-13zm-237,-121c110,-8 219,-18 242,-21c40,-6 41,-7 32,-31c-5,-14 -7,-28 -4,-31c3,-3 29,3 59,13l53,18l79,-43c125,-69 150,-88 179,-141c29,-53 54,-69 110,-69c61,0 57,-31 -9,-73c-60,-38 -125,-37 -211,3l-65,30l0,55c0,33 -9,76 -22,109c-26,63 -9,58 -288,77l-165,11l-170,-52c-93,-28 -178,-54 -187,-58c-9,-4 -81,-92 -159,-197c-130,-173 -263,-324 -276,-312c-11,12 45,98 106,162c65,69 85,93 272,330c98,125 199,235 215,235c5,0 99,-7 209,-15zm795,-142c42,-27 80,-66 74,-75c-20,-32 -135,39 -121,75c8,21 16,21 47,0zm-549,-24c46,-18 107,-37 134,-44c40,-9 51,-16 53,-34c5,-30 -19,-64 -63,-91c-33,-20 -50,-23 -168,-24c-108,-1 -138,2 -164,17c-43,23 -47,22 -61,-17c-9,-24 -29,-45 -65,-68c-44,-28 -60,-33 -113,-33c-63,0 -66,-3 -36,-37c20,-24 11,-98 -18,-138c-24,-34 -73,-60 -114,-60c-24,0 -44,-16 -33,-26c10,-10 88,-6 117,6c17,7 33,11 35,8c2,-2 -16,-60 -40,-128c-82,-228 -70,-207 -128,-226c-29,-10 -97,-20 -152,-23l-100,-6l55,-24c40,-17 72,-24 117,-23l61,0l8,-76c12,-135 -2,-374 -31,-502c-39,-174 -94,-280 -203,-390c-87,-86 -87,-87 -158,-99c-79,-14 -207,-3 -270,24c-49,20 -54,19 -54,-9c0,-25 30,-50 85,-74c30,-12 30,-12 -10,-6c-21,3 -52,12 -67,20c-56,29 -66,5 -18,-41c22,-21 44,-30 91,-37c33,-4 65,-10 69,-13c5,-3 -6,-38 -24,-78c-44,-95 -86,-219 -86,-251c0,-49 -17,-75 -56,-82c-82,-15 -133,21 -257,181c-42,55 -91,117 -108,137l-32,37l48,113c36,87 56,121 87,148c34,30 40,43 48,95c8,58 48,168 109,297c56,120 265,596 331,754c40,96 50,110 162,230c136,148 267,306 310,377c22,34 35,46 46,42c10,-4 35,14 73,53c31,33 70,63 86,67c65,16 246,42 264,38c11,-3 31,5 50,21c41,35 85,34 190,-5zm494,-89c-9,-15 -27,-11 -52,9c-37,31 -27,43 17,21c23,-12 38,-25 35,-30zm128,-32c-24,-24 -37,-21 -27,6c3,9 16,16 27,16l21,0l-21,-22zm-763,-123c0,-3 -9,-24 -20,-45c-29,-56 -56,-72 -103,-59c-20,5 -37,14 -37,19c0,20 102,90 131,90c16,0 29,-2 29,-5zm-139,-157c26,-11 26,-11 13,-67c-15,-71 -47,-161 -70,-198c-22,-35 -105,-123 -117,-123c-12,0 -1,42 24,97c22,48 23,57 9,48c-6,-4 -26,-40 -46,-82c-20,-41 -37,-73 -39,-71c-7,7 65,192 105,273c24,49 40,94 40,116c0,45 8,53 34,34c12,-9 33,-21 47,-27zm-60,-475c5,-48 14,-98 21,-111c6,-12 33,-36 60,-52c32,-20 50,-38 54,-57c4,-16 21,-44 40,-63c59,-62 76,-119 115,-369c6,-45 6,-67 -1,-71c-6,-4 -68,-63 -138,-132l-127,-126l-90,-27c-49,-15 -137,-42 -194,-61c-144,-47 -171,-51 -171,-28c0,11 10,35 22,54c45,75 106,209 134,295c25,78 28,106 29,210c0,66 -6,165 -13,220c-7,55 -15,129 -18,165l-5,65l65,40c37,22 96,63 134,91c37,28 69,50 71,48c2,-2 7,-43 12,-91zm1124,4c53,-29 76,-55 82,-92c5,-30 1,-41 -23,-66c-16,-17 -55,-46 -87,-66c-37,-23 -77,-60 -114,-106c-80,-102 -121,-144 -157,-158c-17,-7 -110,-50 -206,-97c-96,-46 -194,-93 -217,-103l-41,-18l-10,27c-6,15 -13,68 -17,117c-3,50 -13,109 -21,133c-18,53 -19,122 -1,123c32,3 64,-4 79,-18c20,-18 38,-10 38,17c0,10 12,27 28,38c51,35 144,83 154,80c5,-2 24,-46 41,-99c32,-95 60,-149 76,-149c5,0 1,26 -9,58c-10,31 -23,99 -31,151l-12,94l29,24c47,39 160,104 206,119c55,18 173,13 213,-9zm-1600,-1262c-39,-57 -55,-72 -34,-32c25,45 62,97 67,92c3,-3 -12,-30 -33,-60zm-127,-32c-41,-90 -130,-254 -135,-249c-14,13 61,171 115,244c30,39 36,41 20,5zm-109,-70c-23,-49 -45,-96 -50,-106c-13,-24 -47,-135 -51,-167c-2,-17 -14,-31 -38,-42c-41,-21 -120,-24 -120,-5c0,27 59,216 83,267c14,30 44,74 66,98c37,40 43,42 95,42l55,0l-40,-87zm142,-46c-10,-9 -11,-8 -5,6c3,10 9,15 12,12c3,-3 0,-11 -7,-18zm-40,-74c-12,-20 -14,-14 -5,12c4,9 9,14 11,11c3,-2 0,-13 -6,-23z" id="node1" class="node"/>
     <path d="m1404.28832,1501.70854l-30,-21l30,7c41,9 75,22 75,29c0,13 -48,3 -75,-15z" id="node2" class="node"/>
    </g>
    <g transform="translate(0,300) scale(0.10000000149011612,-0.10000000149011612) " fill="#FFFFFF" id="svg_4">
     <path d="m1551.28832,2946.70854c-77,-42 -84,-40 172,-56c162,-10 196,-15 235,-34c108,-54 289,-138 325,-151c37,-14 38,-13 33,7c-3,12 -1,29 5,39c6,9 9,24 5,32c-8,22 -101,68 -137,68c-20,0 -34,8 -45,24c-32,48 -282,106 -455,105c-66,0 -82,-4 -138,-34z" id="node5" class="node"/>
     <path d="m1350.28832,2803.70854c-31,-32 -98,-111 -150,-177c-187,-237 -207,-261 -272,-330c-61,-64 -117,-150 -106,-162c13,-12 146,139 276,312c78,105 150,193 159,197c9,4 94,30 187,58l170,52l165,-11c279,-19 262,-14 288,-77c13,-33 22,-76 22,-109l0,-55l65,-30c86,-40 151,-41 211,-3c66,42 70,73 9,73c-56,0 -81,16 -110,69c-29,53 -54,72 -179,141l-79,43l-53,-18c-30,-10 -56,-16 -59,-13c-3,3 -1,17 4,31c9,24 8,25 -32,31c-35,5 -420,36 -451,36c-5,0 -35,-26 -65,-58z" id="node6" class="node"/>
     <path d="m2372.28832,2704.70854c-14,-36 101,-107 121,-75c8,13 -83,92 -107,92c-4,0 -10,-7 -14,-17z" id="node7" class="node"/>
     <path d="m1680.28832,2685.70854c-19,-16 -39,-24 -50,-21c-18,4 -199,-22 -264,-38c-16,-4 -55,-34 -86,-67c-38,-39 -63,-57 -73,-53c-11,4 -24,-8 -46,-42c-43,-71 -174,-229 -310,-377c-112,-120 -122,-134 -162,-230c-66,-158 -275,-634 -331,-754c-61,-129 -101,-239 -109,-297c-8,-52 -14,-65 -48,-95c-31,-27 -51,-61 -87,-148l-48,-113l32,-37c17,-20 66,-82 108,-137c124,-160 175,-196 257,-181c39,7 56,33 56,82c0,32 42,156 86,251c18,40 29,75 24,78c-4,3 -36,9 -69,13c-47,7 -69,16 -91,37c-48,46 -38,70 18,41c15,-8 46,-17 67,-20c40,-6 40,-6 10,6c-55,24 -85,49 -85,74c0,28 5,29 54,9c63,-27 191,-38 270,-24c71,12 71,13 158,99c109,110 164,216 203,390c29,128 43,367 31,502l-8,76l-61,0c-45,-1 -77,6 -117,23l-55,24l100,6c55,3 123,13 152,23c58,19 46,-2 128,226c24,68 42,126 40,128c-2,3 -18,-1 -35,-8c-29,-12 -107,-16 -117,-6c-11,10 9,26 33,26c41,0 90,26 114,60c29,40 38,114 18,138c-30,34 -27,37 36,37c53,0 69,5 113,33c36,23 56,44 65,68c14,39 18,40 61,17c26,-15 56,-18 164,-17c118,1 135,4 168,24c44,27 68,61 63,91c-2,18 -13,25 -53,34c-27,7 -88,26 -134,44c-105,39 -149,40 -190,5z" id="node8" class="node"/>
     <path d="m2289.28832,2630.70854c0,-13 41,-48 57,-49c29,0 20,21 -17,40c-24,12 -40,16 -40,9z" id="node9" class="node"/>
     <path d="m2465.28832,2565.70854c-10,-27 3,-30 27,-6l21,22l-21,0c-11,0 -24,-7 -27,-16z" id="node10" class="node"/>
     <path d="m1620.28832,2401.70854c-28,-22 -51,-45 -51,-50c0,-5 17,-14 37,-19c47,-13 74,3 103,59c26,50 26,50 -9,50c-19,0 -47,-14 -80,-40z" id="node11" class="node"/>
     <path d="m1516.28832,2314.70854c-4,-3 -7,-22 -7,-42c0,-22 -16,-67 -40,-116c-40,-81 -112,-266 -105,-273c2,-2 19,30 39,71c20,42 40,78 46,82c14,9 13,0 -9,-48c-25,-55 -36,-97 -24,-97c12,0 95,88 117,123c23,37 55,127 70,198c13,56 13,56 -13,67c-14,6 -35,18 -47,27c-11,8 -24,12 -27,8z" id="node12" class="node"/>
     <path d="m1447.28832,1847.70854c-38,-28 -97,-69 -134,-91l-65,-40l5,-65c3,-36 11,-110 18,-165c7,-55 13,-154 13,-220c-1,-104 -4,-132 -29,-210c-28,-86 -89,-220 -134,-295c-12,-19 -22,-43 -22,-54c0,-23 27,-19 171,28c57,19 145,46 194,61l90,27l127,126c70,69 132,128 138,132c7,4 7,26 1,71c-39,250 -56,307 -115,369c-19,19 -36,47 -40,63c-4,19 -22,37 -54,57c-27,16 -54,40 -60,52c-7,13 -16,63 -21,111c-5,48 -10,89 -12,91c-2,2 -34,-20 -71,-48zm32,-331c0,-7 -34,-20 -75,-29l-30,-7l30,21c27,18 75,28 75,15z" id="node13" class="node" stroke-width="20"/>
     <path d="m2441.28832,1817.70854c-46,-15 -159,-80 -206,-119l-29,-24l12,-94c8,-52 21,-120 31,-151c10,-32 14,-58 9,-58c-16,0 -44,54 -76,149c-17,53 -36,97 -41,99c-10,3 -103,-45 -154,-80c-16,-11 -28,-28 -28,-38c0,-27 -18,-35 -38,-17c-15,14 -47,21 -79,18c-18,-1 -17,-70 1,-123c8,-24 18,-83 21,-133c4,-49 11,-102 17,-117l10,-27l41,18c23,10 121,57 217,103c96,47 189,90 206,97c36,14 77,56 157,158c37,46 77,83 114,106c32,20 71,49 87,66c49,51 27,111 -59,158c-40,22 -158,27 -213,9z" id="node14" class="node" stroke-width="20"/>
     <path d="m1057.28832,574.70854c-30,-47 -50,-83 -45,-83c9,0 80,110 75,115c-3,3 -16,-12 -30,-32z" id="node16" class="node"/>
     <path d="m907.28832,509.70854c-35,-47 -82,-135 -103,-191c-33,-87 -7,-60 52,54c91,178 99,201 51,137z" id="node17" class="node"/>
     <path d="m708.28832,489.70854c-22,-24 -52,-68 -66,-98c-24,-51 -83,-240 -83,-267c0,-19 79,-16 120,5c24,11 36,25 38,42c4,32 38,143 51,167c5,10 27,57 50,106l40,87l-55,0c-52,0 -58,-2 -95,-42z" id="node18" class="node"/>
     <path d="m955.28832,404.70854c-6,-14 -5,-15 5,-6c7,7 10,15 7,18c-3,3 -9,-2 -12,-12z" id="node20" class="node"/>
     <path d="m915.28832,336.70854c-9,-26 -7,-32 5,-12c6,10 9,21 6,23c-2,3 -7,-2 -11,-11z" id="node21" class="node"/>
    </g>
   </g>
   <g transform="matrix(0.08193301516273642,-0.0014461588084100892,0.0014461588084100892,0.08193301516273642,177.86590754347384,10.02948289488954) " id="svg_5">
    <g id="Layer_1">
     <path d="m491.85072,-6.8913c-2.397,-0.077 -4.504,0.057 -6.247,0.425c-43.304,9.118 -77.675,25.98 -112.647,45.432c-35.484,19.736 -72.368,29.897 -100.503,59.897c-20.224,20.463 -36.514,26.118 -71.667,24.859c-35.3,-1.265 -65.09,-3.703 -96.423,-7.881c-13.762,-1.835 -28.168,-2.607 -41.499,-4.38c-26.223,-3.488 -47.044,-5.106 -54.002,-4.16c-10.504,1.428 -0.866,9.648 11.36,9.69c7.079,0.022 18.818,0.701 26.082,1.516c28.071,3.149 60.124,3.983 84.807,7.419c20.272,2.822 62.948,4.435 89.795,4.981c19.607,0.398 30.728,-0.597 29.604,12.194c-0.776,8.824 0.739,64.867 4.746,81.658c1.329,5.567 5.878,14.412 9.199,20.222c4.811,8.415 17.3,20.38 28.843,28.374c26.559,18.392 19.761,6.221 4.336,-5.486c-9.757,-7.404 -21.123,-20.709 -26.697,-31.354c-8.43,-16.101 -9.973,-24.233 -11.777,-62.308c-1.136,-24.085 -0.849,-44.632 0.652,-45.659c1.71,25.659 7.676,50.935 13.469,66.365c5.222,13.911 18.433,34.864 18.091,27.122c-0.141,-3.194 -2.067,-7.448 -6.738,-15.813c-4.672,-8.366 -7.876,-19.075 -10.686,-28.235c-6.73,-21.934 -8.665,-41.675 -8.035,-51.292c0.63,-9.617 23.937,-38.561 39.119,-45.805c58.859,-28.089 126.544,-63.475 169.826,-76.282c29.843,-8.831 48.397,5.671 59.385,9.726c14.219,5.249 41.956,32.007 66.943,52.72c24.988,20.714 43.456,29.909 51.651,50.515c4.469,11.239 9.175,33.653 9.536,54.5c0.139,8.026 -3.113,12.439 -6.123,13.425c-11.11,3.64 -14.291,2.572 -24.712,14.883c-7.338,8.669 -4.489,26.804 4.087,42.876c6.956,13.037 23.463,24.804 41.184,13.901c-6.26,13.078 -17.92,19.035 -39.602,14.788c-23.273,-5.087 -54.863,-46.474 -65.72,-86.126c-3.518,-12.848 -5.991,-17.467 -1.553,-27.92c4.561,-10.744 19.726,-24.087 27.466,-29.846c10.469,-7.791 4.833,-10.582 -6.555,-2.3c-11.949,8.69 -12.959,13.254 -27.049,19.922c-19.948,9.442 -30.81,2.092 -41.887,-7.844c-4.99,-4.476 -10.528,-8.16 -23.093,-31.494c-12.565,-23.334 -12.176,-41.117 -9.273,-51.043c3.413,-11.666 -2.411,-13.391 -5.332,0.872c-7.426,22.914 4.436,49.2 13.968,68.906c-11.317,-0.042 -47.362,-58.416 -50.882,-73.681c-1.375,-5.964 -11.336,-11.974 -5.793,2.666c9.926,26.215 23.98,52.297 48.72,75.673c8.689,5.544 11.926,18.723 -4.973,17.176c-8.543,-0.782 -12.569,-3.539 -17.278,-7.661c-14.48,-12.68 -25.258,-9.801 -4.314,5.156c4.897,3.496 10.395,6.396 14.883,8.511c8.91,4.197 8.907,5.856 0.015,30.556c-12.221,33.947 -21.831,46.785 -52.397,69.983c-21.782,16.531 -53.689,29.458 -69.478,35.413c-7.542,2.844 -5.492,6.823 3.809,2.988c36.611,-15.096 62.531,-24.106 94.116,-58.184c9.058,-10.635 19.504,-22.873 20.596,-21.276c1.093,1.596 -10.984,19.198 -24.214,33.193c-17.918,18.954 -29.691,27.79 -46.15,34.651c-12.152,5.066 -25.392,10.963 -29.421,13.103c-15.08,8.006 12.076,0.313 29.37,-8.321c17.301,-8.637 18.196,-8.41 17.439,4.314c-0.634,10.661 -5.775,16.386 -24.8,27.818c-9.15,5.498 -10.254,9.089 1.406,3.581c3.178,-1.501 6.243,-3.263 8.474,-4.819c12.676,-8.839 16.586,-7.217 11.009,4.57c-7.421,15.682 -30.144,40.384 -49.549,54.002c-17.276,12.124 -25.551,24.862 3.274,4.072c11.853,-8.549 24.451,-19.91 32.703,-30.088l18.486,-22.8l-0.212,24.734c-0.151,17.587 -2.331,27.892 -7.529,35.654c-9.743,14.548 -3.743,13.742 6.76,-0.908l7.859,-14.546c24.804,22.61 17.175,19.268 46.882,35.786c33.087,18.398 21.463,29.421 19.329,39.5c-2.521,11.904 2.017,15.868 6.233,5.478c5.119,-12.617 3.287,-18.412 9.733,-20.046c14.226,-3.606 29.654,3.689 38.65,14.89c3.949,4.916 16.903,17.809 1.736,18.889c-33.512,2.386 -160.11,1.674 -210.6,-14.634c-57.473,-18.562 -100.094,-50.944 -102.444,-60.864c-5.116,-21.6 -1.26,-56.493 17.036,-80.112c6.788,-8.763 -0.714,-7.022 -4.915,-2.315c-11.972,13.419 -16.052,32.989 -20.193,47.725c-2.692,9.583 -5.098,20.515 -5.207,24.331c-0.109,3.816 -1.148,3.856 -6.423,4.036c-31.416,1.066 -57.274,2.006 -91.553,6.188c-37.057,4.522 -67.484,4.252 -100.781,12.283c-11.79,2.844 -5.548,7.947 1.596,7.947c13.604,-0.634 46.476,-5.422 86.587,-8.584c110.596,-8.719 103.899,-9.859 144.646,22.778c60.102,48.14 161.652,57.205 236.323,56.375c48.746,-0.542 104.005,6.805 154.688,-37.888c19.899,-17.132 31.178,-39.063 22.28,-66.226c44.512,0.467 84.609,-42.895 67.002,-93.486c9.636,-0.544 20.083,-4.01 30.286,-10.196c16.984,-13.788 24.56,-21.299 28.85,-48.984c4.7,-30.326 -16.814,-61.061 -53.613,-67.742l22.544,-0.798c21.105,-3.345 189.208,-10.376 249.162,-10.422c24.776,-0.019 41.032,-0.327 51.021,-5.625c12.112,-6.425 20.101,-26.002 18.808,-43.045c-0.974,-12.839 -12.277,-25.942 -27.429,-32.226c-10.531,-2.554 -18.226,-4.624 -51.46,-10.122c-33.234,-5.499 -65.207,-8.55 -74.48,-9.939c-7.926,-1.188 -38.465,-2.08 -92.102,-2.747c-44.349,-0.552 -97.7,-2.285 -145.151,-5.815c-47.492,-3.534 -64.22,-5.616 -93.963,-9.844c-23.649,-3.362 -33.247,-2.677 -45.512,-9.99c-18.134,-10.813 -49.039,-21.509 -65.823,-22.046l-0.001,0zm84.471,42.378c29.759,2.814 42.268,4.028 72.041,7.185c66.242,7.024 119.148,7.561 185.127,10.444c31.72,1.386 59.821,-0.265 92.058,1.853c35.764,2.351 74.604,8.163 104.846,14.378c36.682,7.538 46.65,14.324 47.49,32.358c0.665,14.263 -8.524,26.512 -23.225,30.937c-5.343,1.609 -26.051,2.485 -46.003,1.956c-36.844,-0.976 -63.903,1.342 -121.18,2.124c-17.539,0.24 -33.801,-0.171 -36.137,-0.915c-2.495,-8.654 1.661,-31.392 1.428,-46.019c-0.298,-18.734 -8.146,-32.733 -7.778,-1.552c0.133,11.311 -1.351,22.2 -2.637,34.248c-1.912,17.903 6.156,14.28 -69.39,18.618c-22.037,1.265 -38.547,4.477 -39.865,0.476c-2.086,-6.329 -4.677,-41.537 -3.648,-62.146c0.394,-7.892 -5.117,-12.596 -7.148,-0.857c-3.173,18.331 -1.334,36.485 -0.096,53.364c0.924,12.588 -1.69,16.372 -19.687,15.938c-11.759,-0.284 -22.048,1.767 -33.735,0.622c-3.772,-17.999 -3.667,-37.527 -21.563,-52.317c-12.389,-10.238 -41.719,-38.704 -70.898,-60.695zm120.424,124.892c15.171,-0.003 30.222,1.05 43.836,3.626l0.007,0c14.217,2.753 33.522,14.508 40.599,22.69c9.869,11.412 19.623,27.27 2.548,56.873c-17.067,29.602 -45.532,32.833 -53.181,25.473c-17.029,-16.385 -50.545,-6.696 -49.834,-18.032c1.256,-20.007 -6.744,-41.192 -11.36,-61.89c-1.898,-8.513 1.383,-18.289 0.235,-27.685c8.908,-0.668 18.048,-1.052 27.151,-1.055l-0.001,0zm-155.91,0.843c8.243,0.184 14.596,1.496 16.011,3.903c0.784,1.336 0.19,5.383 10.693,33.567c8.303,22.273 9.133,26.112 18.149,36.746c4.525,5.336 4.123,9.258 -4.482,8.562c-3.511,-0.284 -10.971,-1.448 -22.368,-2.329c-39.386,-3.047 -51.659,-5.402 -62.974,-12.085c-5.043,-2.979 -13.497,-11.657 -13.572,-13.154c-0.073,-1.498 12.584,7.547 33.992,6.774c16.914,-0.563 24.847,-4.953 26.609,-13.674c1.014,-5.025 1.141,-12.78 0.066,-21.855c-0.503,-14.507 -12.38,-19.146 -25.584,-17.447c-14.875,1.915 -15.73,4.583 -25.883,6.46c3.93,-10.826 31.209,-15.874 49.343,-15.468zm-23.679,16.223c1.988,-0.047 4.004,-0.012 6.02,0.08c8.186,0.77 14.721,-0.214 15.608,14.737c1.321,21.484 -7.187,23.91 -24.404,24.712c-25.305,1.178 -32.66,-7.071 -28.675,-19.739c4.791,-15.225 17.534,-19.465 31.451,-19.79zm140.625,14.641c4.014,-0.299 4.707,2.244 6.152,7.939c3.733,14.64 8.903,28.564 9.617,43.806c0.44,9.385 -1.128,11.348 -8.943,11.924c-13.317,0.981 -25.855,-10.62 -29.473,-27.275c-3.888,-17.897 -1.001,-28.269 8.13,-32.095c5.423,-2.272 7.57,-3.781 14.517,-4.299zm-177.268,49.746c7.183,-0.099 15.292,0.631 21.452,2.234c6.867,1.786 25.683,4.036 46.326,5.537c42.346,3.08 49.956,5.593 55.759,11.125c40.56,29.166 56.482,27.257 80.896,6.138c16.321,0.384 24.625,1.483 36.248,9.346c13.389,9.057 16.249,18.217 12.048,38.569c-3.03,14.68 -20.426,37.021 -32.644,42.092c-11.644,4.834 -39.674,9.575 -70.452,5.267c-24.647,-3.451 -47.031,-8.385 -68.335,-16.319c-24.608,-9.164 -49.235,-18.816 -70.62,-25.078c-13.854,-4.057 -28.841,-10.819 -41.462,-16.26c-13.703,-5.907 -22.326,-17.816 -3.018,-6.943c39.347,22.157 68.377,3.048 58.909,-37.522c-2.007,-8.6 -17.18,-13.159 -34.351,-12.444c-7.991,0.333 -10.07,-0.604 -6.657,-2.996c2.456,-1.721 8.717,-2.647 15.901,-2.746zm-12.276,11.037c1.588,-0.026 3.319,-0.018 5.23,0.015c22.704,0.4 28.937,4.91 29.128,21.094c0.319,27.04 -23.129,35.746 -52.434,19.468c-14.815,-8.229 -15.281,-15.177 -2.139,-31.794c5.267,-6.659 9.099,-8.585 20.215,-8.782l0,-0.001zm-18.486,63.67c3.256,-0.102 8.911,0.902 16.135,3.589c8.075,3.003 31.844,13.12 62.483,23.825c30.639,10.706 42.56,17.573 81.409,24.258c38.849,6.685 42.878,5.253 50.061,11.17c12.376,10.194 7.38,34.639 -9.646,50.522c-9.055,8.447 -37.628,24.067 -49.417,27.012c-29.346,7.331 -30.14,7.259 -37.163,-3.457c-7.7,-11.749 -4.418,-15.557 9.207,-13.001c12.547,2.354 19.573,2.135 31.86,2.622c8.837,0.351 12.638,-4.852 -6.584,-6.782c-28.419,-2.853 -27.755,-0.092 -63.816,-12.187c-38.183,-13.318 -66.182,-26.75 -97.852,-56.353c-7.348,-6.868 -8.246,-14.032 3.164,-6.65c12.534,8.108 34.122,10.972 40.151,-1.978c13.17,-18.028 -2.849,-29.429 -22.426,-35.522c-11.756,-3.659 -12.993,-6.899 -7.566,-7.068zm-2.952,9.368c4.231,0.27 8.876,3.601 15.901,6.233c14.957,5.602 17.522,7.995 16.465,15.351c-1.382,9.617 -10.193,16.451 -17.205,15.22c-14.712,-2.583 -25.077,-7.43 -26.609,-12.788c-0.974,-3.408 -2.33,-12.019 1.407,-17.322c3.709,-5.264 6.75,-6.905 10.041,-6.694z" fill="#000000" id="path1017"/>
     <path d="m965.51372,122.3077c0.812,-2.465 0.72,-14.052 1.801,-25.424c2.286,-24.058 -4.446,-19.967 -4.779,-2.382c-0.125,6.598 -0.926,16.687 -1.947,22.404c-1.423,7.966 2.176,13.756 4.925,5.402z" fill="#000000" id="path880"/>
    </g>
   </g>
   <path d="m78.56244,45.4549c-6.93912,0 -10.4087,-2.51679 -10.4087,-7.55038c0,-0.77902 0.08987,-1.61792 0.26966,-2.51677l0.55729,-3.18196l7.7661,0l-0.26969,1.42017c-0.10786,0.7191 -0.16179,1.45018 -0.16179,2.19322c0,0.75502 0.18576,1.37825 0.55729,1.86962c0.57528,0.71908 1.52208,1.07861 2.84042,1.07861c1.33029,0 2.40294,-0.35952 3.2179,-1.07861c0.82695,-0.7191 1.4082,-2.0434 1.7438,-3.97294l3.54143,-19.97255l7.73019,0l-3.63135,20.56579c-0.65917,3.83511 -2.09737,6.65152 -4.31456,8.44923c-2.21719,1.79771 -5.36318,2.69656 -9.43797,2.69656l-0.00002,0.00001zm38.12429,-7.26275c0,0.75504 0.38354,1.13254 1.15057,1.13254c0.76703,0 1.40818,-0.14378 1.92351,-0.43143l-0.21573,4.87177c-1.37823,1.12659 -2.93027,1.68986 -4.65607,1.68986c-3.16397,0 -4.91972,-1.15053 -5.26727,-3.4516c-1.4382,2.30107 -3.5535,3.4516 -6.34591,3.4516c-4.72199,0 -7.08297,-2.03139 -7.08297,-6.09423c0,-0.68311 0.07193,-1.44415 0.21573,-2.28311l0.91685,-5.05156c0.4554,-2.58867 1.51006,-4.65004 3.16393,-6.18408c1.65391,-1.54607 3.81118,-2.31906 6.47175,-2.31906c2.66063,0 4.46432,0.62319 5.41112,1.86964l0.21573,-1.29435l6.56162,0l-2.40893,13.59066c-0.03594,0.16778 -0.05393,0.33556 -0.05393,0.50336m-12.76374,-2.06738c-0.05992,0.26367 -0.08987,0.62323 -0.08987,1.07864c0,0.46739 0.21573,0.92284 0.64716,1.36624c0.43149,0.44346 1.15654,0.66517 2.17526,0.66517c1.03068,0 1.91753,-0.4015 2.66057,-1.20445l1.29435,-7.2448c-0.31161,-0.71907 -1.06065,-1.07861 -2.24714,-1.07861c-2.21719,0 -3.51154,1.06065 -3.88305,3.18196l-0.55729,3.23584l0.00001,0.00001zm40.38947,-12.02664c0.3955,1.19844 0.59323,2.7984 0.59323,4.79987c0,2.00144 -0.24567,3.92501 -0.73706,5.77065c-0.4794,1.83366 -1.21646,3.57744 -2.21116,5.23133c-0.99474,1.65389 -2.37896,2.99018 -4.15274,4.00889c-1.76172,1.03068 -3.79315,1.54603 -6.09422,1.54603c-3.59542,0 -6.08224,-0.73708 -7.46048,-2.21118c-0.92284,-0.97075 -1.38427,-2.46284 -1.38427,-4.47631c0,-0.95875 0.11388,-2.0374 0.34156,-3.23584l2.03143,-11.43343l7.33467,0l-2.03141,11.46937c-0.08388,0.43145 -0.12586,0.82094 -0.12586,1.16853c0,1.6419 0.84492,2.46284 2.53479,2.46284c2.99615,0 4.49427,-3.14 4.49427,-9.42001c0,-1.46211 -0.11385,-3.08604 -0.34158,-4.87177l-0.12584,-0.80895l7.33467,0l0,-0.00002zm23.23938,14.09402c0,0.75504 0.38354,1.13254 1.15055,1.13254c0.76703,0 1.4082,-0.14378 1.92351,-0.43143l-0.21573,4.87177c-1.37823,1.12659 -2.93027,1.68986 -4.65605,1.68986c-3.16399,0 -4.91974,-1.15053 -5.26727,-3.4516c-1.4382,2.30107 -3.55351,3.4516 -6.34591,3.4516c-4.72201,0 -7.08299,-2.03139 -7.08299,-6.09423c0,-0.68311 0.07193,-1.44415 0.21573,-2.28311l0.91685,-5.05156c0.45541,-2.58867 1.51008,-4.65004 3.16393,-6.18408c1.65391,-1.54607 3.81118,-2.31906 6.47175,-2.31906c2.66065,0 4.46432,0.62319 5.41112,1.86964l0.21573,-1.29435l6.56162,0l-2.40891,13.59066c-0.03594,0.16778 -0.05393,0.33556 -0.05393,0.50336m-12.76375,-2.06738c-0.0599,0.26367 -0.08987,0.62323 -0.08987,1.07864c0,0.46739 0.21573,0.92284 0.64716,1.36624c0.43149,0.44346 1.15654,0.66517 2.17526,0.66517c1.0307,0 1.91753,-0.4015 2.66057,-1.20445l1.29435,-7.2448c-0.31161,-0.71907 -1.06063,-1.07861 -2.24714,-1.07861c-2.21717,0 -3.51154,1.06065 -3.88305,3.18196l-0.55729,3.23584l0.00001,0.00001z" fill=" rgb(51, 51, 51)" id="svg_6"/>
   <path d="m41.42034,67.4525l-19.17691,-1.26517l19.39949,0l-0.22258,1.26517m0.46861,-2.72951l-11.91383,-1.26521l12.14811,0l-0.23428,1.26521m3.01065,-10.80092l-11.91379,-1.26521l11.99581,0l-0.08201,1.26521m0.19916,-2.6944l-11.89037,-1.26517l11.97239,0l-0.08201,1.26517m-10.09803,6.82967l12.1481,0l-1.06603,1.18319l-11.08206,-1.18319m-2.43667,2.70609l12.13642,0l-1.06605,1.17147l-11.07037,-1.17147m4.86162,-5.40048l12.1481,0l-1.07776,1.18319l-11.07034,-1.18319m19.25891,12.17155l-14.39734,0l0.62088,-3.5144l8.45799,-9.39514l-0.0586,-0.16403l-5.58788,0l0.30459,-4.49843l13.63586,0l-0.62088,3.5144l-8.39939,9.39515l0.02341,0.16403l6.80622,0l-0.78486,4.49842zm18.13349,-6.04477l-4.19387,0l-0.33974,1.9095l5.20131,0l-0.7263,4.13527l-9.92232,0l2.57724,-14.87764l9.89887,0l-1.32372,4.21729l-4.58045,0l-0.33973,1.92122l4.21728,0l-0.46857,2.69436m-10.91808,5.96276l-11.91383,-1.26517l12.1481,0l-0.23427,1.26517m0.96061,-5.4239l-11.92557,-1.26516l12.14811,0l-0.22254,1.26516m0.48027,-2.70609l-11.92552,-1.26516l12.1481,0l-0.22258,1.26516m0.4803,-2.69435l-11.92552,-1.26521l12.14811,0l-0.22259,1.26521m0.46862,-2.70609l-11.91383,-1.26521l12.11295,0l-0.19913,1.26521m-1.9095,10.80092l-11.91383,-1.26521l12.13642,0l-0.22259,1.26521zm28.62085,-12.06613c2.73341,0 4.10013,1.23785 4.10013,3.71357c0,1.1246 -0.22258,2.29216 -0.66774,3.50267c-0.45296,1.21053 -1.21444,2.11645 -2.28437,2.7178l1.6049,4.94359l-5.25987,0l-1.06603,-4.33444l-0.66775,0l-0.76144,4.33444l-4.72101,0l2.57724,-14.87764l7.14595,0m-1.04262,4.87331c0,-0.02342 0.01173,-0.11716 0.03514,-0.28114c0,-0.32022 -0.49983,-0.48031 -1.49948,-0.48031l-0.60915,0l-0.45688,2.58893l0.90205,0c0.85904,0 1.34717,-0.28114 1.46433,-0.84346l0.16398,-0.98402m-9.61773,9.92232l-11.91383,-1.26517l12.1481,0l-0.23427,1.26517m0.96061,-5.4239l-11.92557,-1.26516l12.14811,0l-0.22254,1.26516m0.48027,-2.70609l-11.92552,-1.26516l12.1481,0l-0.22258,1.26516m0.4803,-2.69435l-11.92552,-1.26521l12.14811,0l-0.22259,1.26521m0.46862,-2.70609l-11.91384,-1.26521l12.11296,0l-0.19913,1.26521m-1.9095,10.80092l-11.91383,-1.26521l12.13641,0l-0.22258,1.26521zm29.30004,-12.34727c2.02271,0 3.46363,0.39051 4.32271,1.17147c0.86687,0.78097 1.3003,1.99541 1.3003,3.64328c0,0.80438 -0.10542,1.77672 -0.31628,2.91694c-0.46857,2.70219 -1.29251,4.67024 -2.47177,5.9042c-1.17929,1.24174 -3.03413,1.86262 -5.56447,1.86262c-1.9915,0 -3.40897,-0.3905 -4.25244,-1.17147c-0.84346,-0.77317 -1.2652,-1.97588 -1.2652,-3.60813c0,-0.84347 0.10542,-1.83918 0.31632,-2.98723c0.46857,-2.6944 1.28469,-4.65462 2.44835,-5.88075c1.15585,-1.23396 2.98333,-1.85094 5.48246,-1.85094m-1.92123,11.22267c0.5467,0 0.95671,-0.06639 1.23006,-0.19916c0.27335,-0.13279 0.45685,-0.42175 0.55059,-0.86687l1.06603,-5.88079l-1.72206,0c-0.52327,0 -0.92936,0.06639 -1.21834,0.19916c-0.28897,0.13277 -0.46078,0.41391 -0.51545,0.84346l-1.04258,5.9042l1.65173,0m-6.99366,-2.83496c-0.07808,0.57793 -0.12495,0.9684 -0.14056,1.17147l-11.08207,-1.17147l11.22264,0m0.52717,-2.70609l-0.246,1.18319l-11.00008,-1.18319l11.24608,0m-0.70288,5.40044c0,0.2968 0.03907,0.69117 0.11715,1.18319l-11.04692,-1.18319l10.92977,0m1.68691,-8.09483c-0.21869,0.48424 -0.37488,0.85908 -0.46859,1.12463l-10.63689,-1.12463l11.10548,0m-1.08945,10.82437c0.22647,0.44517 0.46857,0.7927 0.7263,1.04258l-9.80516,-1.04258l9.07887,0m3.53782,-13.53046c-0.44517,0.26556 -0.82784,0.57794 -1.14803,0.9372l-8.6337,-0.9372l9.78172,0l0.00001,0zm35.22898,4.21729l-3.0341,0l-1.86263,10.66035l-4.94359,0l1.85094,-10.66035l-3.11611,0l0.76145,-4.21729l11.10551,0l-0.76148,4.21729m-10.68378,10.57834l-11.92552,-1.26517l12.1481,0l-0.22258,1.26517m0.94889,-5.4239l-11.9138,-1.26516l12.14811,0l-0.23431,1.26516m0.4803,-2.70609l-11.91379,-1.26516l12.13637,0l-0.22258,1.26516m-2.69436,-2.69435l-11.92552,-1.26521l12.14811,0l-0.22259,1.26521m0.48031,-2.70609l-11.92557,-1.26521l12.113,0l-0.18743,1.26521m1.26516,10.80092l-11.92552,-1.26521l12.14811,0l-0.22259,1.26521zm24.40139,-12.34727c2.02271,0 3.46363,0.39051 4.32271,1.17147c0.86687,0.78097 1.3003,1.99541 1.3003,3.64328c0,0.80438 -0.10542,1.77672 -0.31627,2.91694c-0.46859,2.70219 -1.29253,4.67024 -2.47178,5.9042c-1.17929,1.24174 -3.03413,1.86262 -5.56447,1.86262c-1.9915,0 -3.40897,-0.3905 -4.25242,-1.17147c-0.84347,-0.77317 -1.26521,-1.97588 -1.26521,-3.60813c0,-0.84347 0.10542,-1.83918 0.31632,-2.98723c0.46857,-2.6944 1.28469,-4.65462 2.44835,-5.88075c1.15585,-1.23396 2.98334,-1.85094 5.48246,-1.85094m-1.92123,11.22267c0.5467,0 0.95671,-0.06639 1.23006,-0.19916c0.27335,-0.13279 0.45685,-0.42175 0.55059,-0.86687l1.06605,-5.88079l-1.72207,0c-0.52327,0 -0.92936,0.06639 -1.21833,0.19916c-0.28898,0.13277 -0.4608,0.41391 -0.51546,0.84346l-1.04258,5.9042l1.65173,0m-6.99366,-2.83496c-0.07808,0.57793 -0.12495,0.9684 -0.14056,1.17147l-11.08207,-1.17147l11.22264,0m0.52717,-2.70609l-0.246,1.18319l-11.00008,-1.18319l11.24608,0m-0.70288,5.40044c0,0.2968 0.03907,0.69117 0.11715,1.18319l-11.04692,-1.18319l10.92977,0m1.68691,-8.09483c-0.21865,0.48424 -0.37488,0.85908 -0.46857,1.12463l-10.6369,-1.12463l11.10548,0m-1.08945,10.82437c0.22648,0.44517 0.46857,0.7927 0.7263,1.04258l-9.80516,-1.04258l9.07887,0m3.53782,-13.53046c-0.44517,0.26556 -0.82784,0.57794 -1.14801,0.9372l-8.63371,-0.9372l9.78172,0zm30.95312,10.49636c0.73413,0 1.2769,-0.08984 1.62836,-0.26945c0.35925,-0.17961 0.59352,-0.58962 0.70288,-1.23002l1.30032,-7.30999l-2.24924,0c-0.71847,0 -1.25343,0.08985 -1.6049,0.26946c-0.35925,0.17961 -0.59352,0.58962 -0.70289,1.23002l-1.3003,7.30997l2.22577,0m2.30779,-13.61243c2.38198,0 4.07672,0.46465 5.08416,1.39401c1.01527,0.92937 1.52293,2.35856 1.52293,4.28757c0,1.92902 -0.30459,3.94784 -0.91374,6.05651c-0.60919,2.10863 -1.57369,3.74867 -2.89352,4.92014c-1.32766,1.17147 -3.26061,1.7572 -5.79877,1.7572c-2.53817,0 -4.31489,-0.46465 -5.33016,-1.39401c-1.00748,-0.92937 -1.5112,-2.35856 -1.5112,-4.28758c0,-0.91373 0.12884,-2.12818 0.38657,-3.64327c0.26555,-1.50727 0.61308,-2.80762 1.04262,-3.90097c0.42954,-1.10118 1.01137,-2.05396 1.74547,-2.85838c1.40577,-1.55414 3.62766,-2.33121 6.66564,-2.33121m-10.26206,9.07887c-0.03903,0.14837 -0.07808,0.35532 -0.11711,0.62088l-11.04697,-1.18319l11.24609,0l-0.08201,0.56232m-0.31628,2.14377c-0.05466,0.42953 -0.082,0.82004 -0.082,1.17147l-11.07034,-1.17147l11.15234,0m1.07777,-5.40048l-0.33974,1.14805l-10.90635,-1.14805l11.24609,0m-1.12463,8.09483c0.07028,0.52328 0.13277,0.91768 0.18743,1.18319l-10.92977,-1.18319l10.74234,0m2.27265,-10.80092c-0.26552,0.49204 -0.45296,0.86691 -0.56228,1.12463l-10.51978,-1.12463l11.08206,0m-1.42919,13.53046c0.2421,0.42954 0.52327,0.77707 0.84346,1.04258l-9.73489,-1.04258l8.89143,0m4.10013,-16.22482c-0.54666,0.33581 -0.9684,0.64429 -1.26517,0.92547l-8.59856,-0.92547l9.86374,0l-0.00001,0zm27.38546,17.572l-2.90525,-5.56447l-0.10542,0l-0.98403,5.56447l-4.72101,0l2.57724,-14.87764l3.83068,0l2.91694,5.54105l0.17576,0l0.94888,-5.54105l4.69756,0l-2.61235,14.87764l-3.81899,0m-9.65287,-0.082l-11.91383,-1.26517l12.1481,0l-0.23427,1.26517m0.96061,-5.4239l-11.92555,-1.26516l12.1481,0l-0.22254,1.26516m0.48027,-2.70609l-11.92552,-1.26516l12.14811,0l-0.22259,1.26516m0.48031,-2.69435l-11.92553,-1.26521l12.14811,0l-0.22258,1.26521m0.46861,-2.70609l-11.91383,-1.26521l12.11295,0l-0.19913,1.26521m-1.90949,10.80092l-11.91384,-1.26521l12.13642,0l-0.22258,1.26521zm32.0551,-3.23326l-4.1938,0l-0.33977,1.9095l5.20131,0l-0.7263,4.13527l-9.92232,0l2.57724,-14.87764l9.89887,0l-1.32376,4.21729l-4.58041,0l-0.33977,1.92122l4.21733,0l-0.46861,2.69436m-10.91805,5.96276l-11.91383,-1.26517l12.1481,0l-0.23427,1.26517m0.96061,-5.4239l-11.92557,-1.26516l12.14811,0l-0.22254,1.26516m0.48027,-2.70609l-11.92552,-1.26516l12.1481,0l-0.22258,1.26516m0.4803,-2.69435l-11.92552,-1.26521l12.14811,0l-0.22259,1.26521m0.46862,-2.70609l-11.91384,-1.26521l12.11296,0l-0.19913,1.26521m-1.9095,10.80092l-11.91383,-1.26521l12.13642,0l-0.22259,1.26521z" fill=" rgb(51, 51, 51)" id="svg_7"/>
  </g>
 </g>

</svg>